# Exported from Wings 3D 2.2.4
mtllib Leaf-A_7.mtl
o Leaf-A_7
#64 vertices, 124 faces
v 0.50673286 3.90477178 -0.51849386
v 0.59467731 3.36636858 -0.45998280
v 0.64993495 2.78880717 -0.31343415
v 0.67526188 2.23099639 -0.14121117
v 0.71778069 3.87152985 -3.7495897e-2
v 0.72692078 3.35127363 9.2210679e-2
v 0.68371828 2.78963365 0.24455106
v 0.57422426 2.24909521 0.31732909
v 0.50543469 3.91643392 0.41837279
v 0.42826896 3.36431059 0.56382209
v 0.34503935 2.77853619 0.63499509
v 0.14145339 2.25422068 0.65026282
v 5.2699043e-2 3.91591956 0.65843638
v -0.12829277 3.39079740 0.73641896
v -0.30540919 2.78203439 0.66342902
v -0.38497609 2.22794836 0.58967740
v -0.48758147 3.88294148 0.50132555
v -0.62042383 3.37255930 0.42224607
v -0.67694037 2.78302580 0.32651604
v -0.68959844 2.23076111 7.8100537e-2
v -0.66840183 3.90945971 -1.4189663e-2
v -0.71932829 3.36634685 -0.12767075
v -0.72184685 2.77999272 -0.26346585
v -0.60172869 2.24618595 -0.38474326
v -0.49696345 3.90601691 -0.48132094
v -0.44218613 3.35988490 -0.64923210
v -0.29444133 2.79838484 -0.67948717
v -0.13572596 2.21608665 -0.71461693
v -8.2826837e-3 3.88378612 -0.72413782
v 0.12319248 3.35414024 -0.71726852
v 0.30007934 2.77014711 -0.67266859
v 0.38219582 2.22602727 -0.55558679
v 0.34759917 4.25217301 -0.57503251
v 0.66238981 4.28287066 -0.14320826
v 0.58922076 4.33422833 0.28658745
v 0.14273268 4.33649069 0.61099986
v -0.37449354 4.29101639 0.58267248
v -0.66361590 4.32507435 0.12934840
v -0.55203996 4.31375883 -0.37729034
v -0.16386055 4.29490125 -0.68740465
v 0.65123769 1.87815063 -6.2589247e-2
v 0.47899901 1.82960175 0.42880226
v 3.0748469e-2 1.86962960 0.66658152
v -0.46486508 1.84851767 0.50567723
v -0.65301695 1.85070085 9.9803432e-3
v -0.50051823 1.78888609 -0.47372952
v -3.5876849e-2 1.83286350 -0.71367011
v 0.44301319 1.86732874 -0.50623825
v 0.54180231 4.41875484 -0.13202567
v 0.26132476 4.43611073 -0.50025672
v -0.14087834 4.43186757 -0.49006390
v -0.45860314 4.41550168 -0.27711604
v -0.53333710 4.41378744 0.12923765
v -0.32239910 4.40338551 0.45160286
v 0.18266675 4.42558838 0.48751891
v 0.44695916 4.40527293 0.27266184
v 0.55246430 1.75806598 -1.4924917e-2
v 0.38489352 1.71340926 0.36570260
v -5.8598068e-4 1.75629687 0.50848682
v -0.37574069 1.71282220 0.39503621
v -0.53085965 1.76568175 -1.1005838e-2
v -0.37190383 1.71676060 -0.42135690
v -8.4936333e-4 1.72390678 -0.55986733
v 0.35242140 1.74026450 -0.44238402
vn 0.69090222 0.11624973 -0.71354055
vn 0.80779424 6.0813545e-3 -0.58943319
vn 0.91527574 -4.7843292e-2 -0.39997668
vn 0.97422406 -7.7360780e-2 -0.21190280
vn 0.99631971 8.5427408e-2 -7.0144465e-3
vn 0.98685340 1.2707992e-2 0.16111758
vn 0.93922605 -5.8566935e-2 0.33826668
vn 0.83905134 -7.2311041e-2 0.53922534
vn 0.72373112 7.5417032e-2 0.68594865
vn 0.60015448 4.1498605e-2 0.79880690
vn 0.43316210 -4.6008466e-2 0.90014100
vn 0.26563865 -6.5234709e-2 0.96186306
vn 9.3072699e-2 8.0240449e-2 0.99242075
vn -0.13451261 5.5645752e-2 0.98934822
vn -0.34163346 -6.0280550e-2 0.93789809
vn -0.54130124 -5.2792653e-2 0.83916977
vn -0.67871225 5.2622781e-2 0.73251657
vn -0.81855675 7.1124644e-2 0.57000538
vn -0.89758308 -7.7943394e-2 0.43390026
vn -0.97445623 -9.9766292e-2 0.20120074
vn -0.99771373 6.7579755e-2 -5.3215005e-4
vn -0.98479153 8.1927890e-2 -0.15321055
vn -0.93427355 -3.5624243e-2 -0.35477296
vn -0.83529360 -7.1447858e-2 -0.54514200
vn -0.74098622 9.9508524e-2 -0.66410652
vn -0.56662909 4.0810992e-2 -0.82296169
vn -0.36569829 -4.4861963e-2 -0.92965164
vn -0.18060141 -3.5141933e-2 -0.98292837
vn -2.1672590e-2 6.1046223e-2 -0.99789962
vn 0.18720644 7.7490207e-3 -0.98229003
vn 0.39631618 -4.8562816e-2 -0.91682885
vn 0.58745137 -4.8260924e-2 -0.80781915
vn 0.52955473 0.39098859 -0.75279460
vn 0.88670511 0.38873235 -0.25028225
vn 0.71942921 0.48218984 0.49991456
vn 0.25036979 0.45049631 0.85695276
vn -0.50847846 0.46993047 0.72153656
vn -0.87524588 0.45380684 0.16734396
vn -0.72287564 0.46852830 -0.50787010
vn -0.17310343 0.48478539 -0.85733210
vn 0.92163851 -0.38539210 -4.5336283e-2
vn 0.70768616 -0.40953378 0.57572769
vn 6.0478585e-2 -0.46663627 0.88237913
vn -0.56891525 -0.46514513 0.67821490
vn -0.85310591 -0.51933366 5.0028541e-2
vn -0.65982645 -0.54186786 -0.52058456
vn 1.6485315e-2 -0.47418365 -0.88027161
vn 0.61865834 -0.38657004 -0.68397768
vn 0.46566305 0.87431232 -0.13687909
vn 0.26856831 0.77872567 -0.56697213
vn -7.1508709e-2 0.95257906 -0.29576956
vn -0.38496287 0.89782874 -0.21379228
vn -0.37347329 0.92318317 9.0832419e-2
vn -0.24737557 0.88785819 0.38796027
vn 9.8393537e-2 0.93290213 0.34642794
vn 0.22737607 0.96378881 0.13932426
vn 0.51231515 -0.85671508 -5.9770136e-2
vn 0.29431525 -0.89965389 0.32249251
vn 1.7688382e-2 -0.95789689 0.28656706
vn -0.28214576 -0.91437378 0.29036934
vn -0.32764663 -0.94413199 3.5531252e-2
vn -0.21449434 -0.95900724 -0.18519528
vn 3.9778658e-2 -0.93278397 -0.35823418
vn 0.29520054 -0.91235257 -0.28367132
g Leaf-A_7_default
usemtl default
s 1
f 1//1 5//5 2//2
f 1//1 33//33 5//5
f 2//2 7//7 3//3
f 2//2 29//29 1//1
f 2//2 30//30 29//29
f 2//2 31//31 30//30
f 3//3 7//7 4//4
f 3//3 31//31 2//2
f 4//4 31//31 3//3
f 4//4 32//32 31//31
f 4//4 42//42 41//41
f 4//4 48//48 32//32
f 5//5 6//6 2//2
f 5//5 10//10 6//6
f 5//5 35//35 9//9
f 6//6 7//7 2//2
f 6//6 10//10 7//7
f 7//7 8//8 4//4
f 7//7 12//12 8//8
f 8//8 42//42 4//4
f 9//9 10//10 5//5
f 9//9 13//13 10//10
f 9//9 35//35 13//13
f 10//10 11//11 7//7
f 10//10 15//15 11//11
f 11//11 12//12 7//7
f 11//11 15//15 12//12
f 12//12 42//42 8//8
f 12//12 43//43 42//42
f 12//12 44//44 43//43
f 13//13 14//14 10//10
f 13//13 18//18 14//14
f 13//13 37//37 17//17
f 14//14 15//15 10//10
f 14//14 18//18 15//15
f 15//15 16//16 12//12
f 15//15 20//20 16//16
f 16//16 44//44 12//12
f 17//17 18//18 13//13
f 17//17 21//21 18//18
f 17//17 37//37 21//21
f 18//18 19//19 15//15
f 18//18 23//23 19//19
f 19//19 20//20 15//15
f 19//19 23//23 20//20
f 20//20 44//44 16//16
f 20//20 45//45 44//44
f 20//20 46//46 45//45
f 21//21 22//22 18//18
f 21//21 26//26 22//22
f 21//21 39//39 25//25
f 22//22 23//23 18//18
f 22//22 26//26 23//23
f 23//23 24//24 20//20
f 23//23 28//28 24//24
f 24//24 46//46 20//20
f 25//25 26//26 21//21
f 25//25 29//29 26//26
f 25//25 39//39 29//29
f 26//26 27//27 23//23
f 26//26 31//31 27//27
f 27//27 28//28 23//23
f 27//27 31//31 28//28
f 28//28 46//46 24//24
f 28//28 47//47 46//46
f 28//28 48//48 47//47
f 29//29 30//30 26//26
f 29//29 33//33 1//1
f 29//29 40//40 33//33
f 30//30 31//31 26//26
f 31//31 32//32 28//28
f 32//32 48//48 28//28
f 33//33 34//34 5//5
f 33//33 49//49 34//34
f 33//33 50//50 49//49
f 33//33 51//51 50//50
f 34//34 35//35 5//5
f 34//34 49//49 35//35
f 35//35 36//36 13//13
f 35//35 55//55 36//36
f 35//35 56//56 55//55
f 36//36 37//37 13//13
f 36//36 55//55 37//37
f 37//37 38//38 21//21
f 37//37 53//53 38//38
f 37//37 54//54 53//53
f 37//37 55//55 54//54
f 38//38 39//39 21//21
f 38//38 53//53 39//39
f 39//39 40//40 29//29
f 39//39 51//51 40//40
f 39//39 52//52 51//51
f 39//39 53//53 52//52
f 40//40 51//51 33//33
f 41//41 48//48 4//4
f 41//41 57//57 48//48
f 42//42 57//57 41//41
f 42//42 58//58 57//57
f 42//42 59//59 58//58
f 43//43 59//59 42//42
f 44//44 59//59 43//43
f 44//44 60//60 59//59
f 44//44 61//61 60//60
f 45//45 61//61 44//44
f 46//46 61//61 45//45
f 46//46 62//62 61//61
f 46//46 63//63 62//62
f 47//47 63//63 46//46
f 48//48 63//63 47//47
f 48//48 64//64 63//63
f 49//49 56//56 35//35
f 50//50 51//51 49//49
f 51//51 56//56 49//49
f 52//52 53//53 51//51
f 53//53 55//55 51//51
f 54//54 55//55 53//53
f 55//55 56//56 51//51
f 57//57 64//64 48//48
f 58//58 59//59 57//57
f 59//59 64//64 57//57
f 60//60 61//61 59//59
f 61//61 63//63 59//59
f 62//62 63//63 61//61
f 63//63 64//64 59//59
