# Exported from Wings 3D 2.2.4
mtllib Leaf-C_2.mtl
o Leaf-C_2
#64 vertices, 124 faces
v 0.90365374 3.87427183 3.6042583e-2
v 0.74040578 3.33957287 1.1105171e-2
v 0.59831158 2.81560288 2.4403984e-2
v 0.49633623 2.26149632 4.1650482e-2
v 0.63704117 3.84102990 0.63811051
v 0.52756837 3.32447792 0.53119024
v 0.43903893 2.81642936 0.44975995
v 0.34911350 2.27959514 0.32293675
v 1.3288659e-3 3.88593397 0.84183169
v 7.6116120e-3 3.33751488 0.73608857
v 5.7631832e-2 2.80533190 0.60990974
v 9.0223564e-3 2.28472063 0.49787518
v -0.57247675 3.88541962 0.60423488
v -0.51684172 3.36400169 0.56360457
v -0.46018746 2.80883011 0.44528768
v -0.34015313 2.25844829 0.39110468
v -0.86060977 3.85244153 2.3757750e-2
v -0.74225968 3.34576358 2.8126746e-2
v -0.60142441 2.80982152 6.5646544e-2
v -0.48678019 2.26126106 -2.7792480e-2
v -0.56376972 3.87895976 -0.61282743
v -0.49608329 3.33955114 -0.48968168
v -0.45327491 2.80678843 -0.39170610
v -0.35272534 2.27668590 -0.31338228
v 3.1034963e-2 3.87551696 -0.82781121
v 2.3638093e-3 3.33308918 -0.74452994
v 1.6858781e-2 2.82518055 -0.57743318
v 2.0597681e-2 2.24658660 -0.48526067
v 0.64078571 3.85328618 -0.59296770
v 0.53563402 3.32734453 -0.46748550
v 0.47875020 2.79694282 -0.37755862
v 0.36126547 2.25652722 -0.28004542
v 0.94236469 4.24669530 2.6874559e-2
v 0.68805150 4.27739295 0.70579153
v 3.7744322e-2 4.32875063 0.90789099
v -0.65583649 4.33101297 0.66319957
v -0.94536647 4.28553868 5.7734043e-2
v -0.66538500 4.31959665 -0.64268276
v 2.3329081e-2 4.30828113 -0.92162525
v 0.65860122 4.28942354 -0.66263573
v 0.38949668 1.88362833 6.4895858e-3
v 0.27578557 1.83507946 0.29539402
v 1.2100252e-2 1.87510731 0.43137853
v -0.28102623 1.85399538 0.32900179
v -0.36738333 1.85617855 1.7870144e-2
v -0.27341220 1.79436380 -0.26335264
v 6.6639652e-3 1.83834121 -0.40149849
v 0.28306693 1.87280644 -0.25259419
v 0.62743438 4.41875484 0.63879251
v 0.84321302 4.43611073 3.9621260e-3
v 0.60340183 4.43186757 -0.52526537
v 1.9077685e-2 4.41550168 -0.80857367
v -0.59507657 4.41378744 -0.56461191
v -0.88039476 4.40338551 2.4352646e-2
v -0.53772082 4.42558838 0.59968900
v -6.8290760e-3 4.40527293 0.88108812
v 0.26336058 1.75806598 2.3559400e-2
v 0.18396532 1.71340926 0.19131241
v 1.1360318e-2 1.75629687 0.24592115
v -0.15091989 1.71282220 0.22064603
v -0.21786335 1.76568175 2.7478479e-2
v -0.14708303 1.71676060 -0.16999809
v 1.1096935e-2 1.72390678 -0.22033301
v 0.15149320 1.74026450 -0.19102519
vn 0.97828813 -0.20721939 -3.5299484e-3
vn 0.96089908 -0.27676167 -8.7139453e-3
vn 0.97461619 -0.22197432 2.9166610e-2
vn 0.97253101 -0.22788516 4.7452968e-2
vn 0.64786050 -0.23702999 0.72394306
vn 0.67615882 -0.24799360 0.69376395
vn 0.70039523 -0.25192810 0.66781641
vn 0.70013620 -0.21298750 0.68150247
vn -2.5913785e-2 -0.18086851 0.98316583
vn 2.2385875e-2 -0.20887837 0.97768538
vn 5.0103822e-2 -0.22732228 0.97252979
vn 9.1392886e-2 -0.18830676 0.97784861
vn -0.66830628 -0.17386957 0.72328147
vn -0.66892121 -0.20186023 0.71539979
vn -0.67367819 -0.21758705 0.70626735
vn -0.67962792 -0.21978716 0.69985676
vn -0.97656738 -0.21492890 1.1032886e-2
vn -0.97030353 -0.24135510 -1.6086381e-2
vn -0.97730185 -0.21171303 -7.6601445e-3
vn -0.96876255 -0.24159480 -5.5955968e-2
vn -0.65456309 -0.22307792 -0.72234576
vn -0.69248383 -0.22236472 -0.68630903
vn -0.71164926 -0.20719880 -0.67128532
vn -0.70785120 -0.20188793 -0.67689581
vn 1.8003653e-3 -0.20256502 -0.97926716
vn 1.0318032e-3 -0.23322773 -0.97242160
vn 1.9252094e-2 -0.23008220 -0.97298075
vn 5.0449536e-2 -0.17963360 -0.98243911
vn 0.68030469 -0.21984160 -0.69918181
vn 0.70604844 -0.24582041 -0.66412946
vn 0.72715844 -0.23075480 -0.64652365
vn 0.73647119 -0.21098879 -0.64272383
vn 0.98155119 0.19030962 -1.8425606e-2
vn 0.67863392 0.19514515 0.70807794
vn -2.2690129e-2 8.8238444e-2 0.99584092
vn -0.65081854 0.22448650 0.72528686
vn -0.98706906 0.15905628 1.9894096e-2
vn -0.67750403 0.26923252 -0.68447216
vn 6.8756058e-3 0.30398841 -0.95265092
vn 0.69141204 0.27554433 -0.66785082
vn 0.86223386 -0.50614040 -1.9356163e-2
vn 0.65449731 -0.48516828 0.57986637
vn 6.1541488e-2 -0.52164824 0.85093816
vn -0.60919119 -0.52331844 0.59583883
vn -0.81429074 -0.58042541 6.0769980e-3
vn -0.60658215 -0.61209929 -0.50733869
vn 7.4542394e-2 -0.56253476 -0.82340639
vn 0.66586118 -0.49057359 -0.56210893
vn 0.32968544 0.87713412 0.34920374
vn 0.63070755 0.77595648 -9.9766353e-3
vn 0.27251497 0.92251015 -0.27333242
vn 5.3773264e-3 0.87927098 -0.47629153
vn -0.25693309 0.93133709 -0.25806319
vn -0.63636752 0.77136967 -5.0209531e-3
vn -0.11385317 0.98621642 0.12006097
vn -3.9634309e-3 0.66277920 0.74880440
vn 0.27274614 -0.95723641 -9.6477942e-2
vn 0.30586711 -0.91322455 0.26919554
vn 3.7176736e-3 -0.99611665 8.7964743e-2
vn -0.21767389 -0.94741611 0.23456512
vn -0.15521119 -0.98786789 -5.1496138e-3
vn -0.25763321 -0.95264137 -0.16155355
vn 4.9917356e-2 -0.99291609 -0.10782346
vn 0.42815038 -0.83601754 -0.34316456
g Leaf-C_2_default
usemtl default
s 1
f 1//1 6//6 2//2
f 1//1 30//30 29//29
f 1//1 34//34 5//5
f 1//1 40//40 33//33
f 2//2 6//6 3//3
f 2//2 30//30 1//1
f 3//3 8//8 4//4
f 3//3 30//30 2//2
f 3//3 31//31 30//30
f 3//3 32//32 31//31
f 4//4 32//32 3//3
f 4//4 41//41 32//32
f 5//5 6//6 1//1
f 5//5 9//9 6//6
f 5//5 34//34 9//9
f 6//6 7//7 3//3
f 6//6 11//11 7//7
f 7//7 8//8 3//3
f 7//7 11//11 8//8
f 8//8 41//41 4//4
f 8//8 42//42 41//41
f 8//8 43//43 42//42
f 9//9 10//10 6//6
f 9//9 14//14 10//10
f 9//9 36//36 13//13
f 10//10 11//11 6//6
f 10//10 14//14 11//11
f 11//11 12//12 8//8
f 11//11 16//16 12//12
f 12//12 43//43 8//8
f 13//13 14//14 9//9
f 13//13 17//17 14//14
f 13//13 36//36 17//17
f 14//14 15//15 11//11
f 14//14 19//19 15//15
f 15//15 16//16 11//11
f 15//15 19//19 16//16
f 16//16 43//43 12//12
f 16//16 44//44 43//43
f 16//16 45//45 44//44
f 17//17 18//18 14//14
f 17//17 22//22 18//18
f 17//17 38//38 21//21
f 18//18 19//19 14//14
f 18//18 22//22 19//19
f 19//19 20//20 16//16
f 19//19 24//24 20//20
f 20//20 45//45 16//16
f 21//21 22//22 17//17
f 21//21 25//25 22//22
f 21//21 38//38 25//25
f 22//22 23//23 19//19
f 22//22 27//27 23//23
f 23//23 24//24 19//19
f 23//23 27//27 24//24
f 24//24 45//45 20//20
f 24//24 46//46 45//45
f 24//24 47//47 46//46
f 25//25 26//26 22//22
f 25//25 30//30 26//26
f 25//25 40//40 29//29
f 26//26 27//27 22//22
f 26//26 30//30 27//27
f 27//27 28//28 24//24
f 27//27 32//32 28//28
f 28//28 47//47 24//24
f 29//29 30//30 25//25
f 29//29 40//40 1//1
f 30//30 31//31 27//27
f 31//31 32//32 27//27
f 32//32 47//47 28//28
f 32//32 48//48 47//47
f 33//33 34//34 1//1
f 33//33 50//50 34//34
f 34//34 35//35 9//9
f 34//34 50//50 49//49
f 34//34 56//56 35//35
f 35//35 36//36 9//9
f 35//35 56//56 36//36
f 36//36 37//37 17//17
f 36//36 54//54 37//37
f 36//36 55//55 54//54
f 36//36 56//56 55//55
f 37//37 38//38 17//17
f 37//37 54//54 38//38
f 38//38 39//39 25//25
f 38//38 52//52 39//39
f 38//38 53//53 52//52
f 38//38 54//54 53//53
f 39//39 40//40 25//25
f 39//39 52//52 40//40
f 40//40 50//50 33//33
f 40//40 51//51 50//50
f 40//40 52//52 51//51
f 41//41 48//48 32//32
f 41//41 58//58 57//57
f 41//41 64//64 48//48
f 42//42 58//58 41//41
f 43//43 58//58 42//42
f 43//43 59//59 58//58
f 43//43 60//60 59//59
f 44//44 60//60 43//43
f 45//45 60//60 44//44
f 45//45 61//61 60//60
f 45//45 62//62 61//61
f 46//46 62//62 45//45
f 47//47 62//62 46//46
f 47//47 63//63 62//62
f 47//47 64//64 63//63
f 48//48 64//64 47//47
f 49//49 56//56 34//34
f 50//50 55//55 49//49
f 51//51 55//55 50//50
f 52//52 55//55 51//51
f 53//53 55//55 52//52
f 54//54 55//55 53//53
f 55//55 56//56 49//49
f 57//57 64//64 41//41
f 58//58 59//59 57//57
f 59//59 63//63 57//57
f 60//60 61//61 59//59
f 61//61 63//63 59//59
f 62//62 63//63 61//61
f 63//63 64//64 57//57
