# Exported from Wings 3D 2.2.4
mtllib Leaf-A_2.mtl
o Leaf-A_2
#48 vertices, 92 faces
v 0.64127643 4.39517560 -9.6152102e-3
v 0.44326095 4.42369765 0.46780822
v -9.3782164e-3 4.42295559 0.70127359
v -0.48820843 4.40959513 0.41188900
v -0.64873438 4.42169383 -4.5421264e-2
v -0.47025219 4.41748521 -0.48047975
v -3.9539169e-2 4.41992250 -0.66359953
v 0.44891502 4.42501997 -0.47447994
v 0.68329116 1.74225103 -1.1554173e-2
v 0.45867445 1.73502325 0.42436154
v 1.1497548e-4 1.76231462 0.66698385
v -0.46920056 1.71892067 0.44279080
v -0.64573723 1.72002025 -2.5561521e-2
v -0.46979355 1.72927860 -0.45828356
v 3.1526860e-2 1.73407689 -0.64945204
v 0.47224636 1.72886129 -0.44114308
v 0.65118189 3.83730045 -6.4984013e-3
v 0.67319557 3.33279810 5.3064505e-3
v 0.69000052 2.84895577 -6.8920979e-2
v 0.66353181 2.31601813 -3.7285517e-2
v 0.45438317 3.87614383 0.49741552
v 0.45803776 3.37500179 0.46411084
v 0.47963972 2.82848627 0.46149524
v 0.44779973 2.27442869 0.44415788
v -2.1808120e-2 3.91369132 0.64211662
v -1.9954993e-2 3.32994245 0.65202430
v -4.6435537e-3 2.83477030 0.67244457
v -1.8773279e-2 2.27845837 0.68563209
v -0.46262059 3.88624155 0.45755162
v -0.48421369 3.28922679 0.45532559
v -0.48313428 2.79800420 0.43274397
v -0.48572807 2.29726943 0.46608404
v -0.65145457 3.89108891 1.2274400e-2
v -0.68136471 3.37324480 -2.9410835e-2
v -0.67548713 2.83380164 3.4506826e-2
v -0.66666612 2.28223575 -3.1127197e-3
v -0.49172967 3.88612151 -0.47789416
v -0.53135909 3.34051958 -0.48207475
v -0.43437392 2.82752245 -0.49988354
v -0.49662731 2.27200700 -0.46417319
v 9.8828711e-3 3.90640005 -0.67881356
v -1.7463743e-4 3.32654333 -0.67845669
v -5.3834880e-3 2.83423094 -0.69318573
v -2.6754253e-4 2.25555627 -0.64912309
v 0.47518119 3.91401582 -0.47894892
v 0.47662376 3.32989467 -0.50902934
v 0.46740757 2.80184085 -0.49002650
v 0.44040767 2.28299857 -0.53005643
vn 0.67746359 0.73554174 -4.6294886e-3
vn 0.62842968 0.48661576 0.60686180
vn -3.7883120e-2 0.42251350 0.90556458
vn -0.50467915 0.73350689 0.45526542
vn -0.53032400 0.84769151 -1.3249884e-2
vn -0.69507186 0.26240166 -0.66934332
vn -1.7977845e-2 0.73799571 -0.67456589
vn 0.54927821 0.65416542 -0.51996254
vn 0.96753984 -0.25263619 6.4515631e-3
vn 0.26575776 -0.92392081 0.27521475
vn 2.3781271e-2 -0.28854301 0.95717155
vn -0.46771404 -0.73371964 0.49284791
vn -0.75988730 -0.64999044 -9.1497017e-3
vn -0.59828786 -0.50391709 -0.62299213
vn -4.1457270e-3 -0.64298231 -0.76586981
vn 0.47386859 -0.74866142 -0.46363201
vn 0.99951736 2.7847560e-2 1.3768022e-2
vn 0.99866437 3.6586838e-2 3.6481152e-2
vn 0.99973957 -1.5072217e-2 -1.7135127e-2
vn 0.99997050 -7.6697381e-3 -4.0854873e-4
vn 0.67970161 4.7503702e-3 0.73347335
vn 0.69080497 6.6896818e-3 0.72301020
vn 0.71863965 -1.8951939e-2 0.69512436
vn 0.72050290 -1.5347062e-2 0.69328208
vn -3.8110539e-2 -1.3767437e-2 0.99917868
vn -1.5452633e-2 2.8810522e-2 0.99946544
vn -1.2816308e-2 1.3268362e-2 0.99982983
vn 1.9073381e-2 -6.1115350e-3 0.99979941
vn -0.70605799 2.4996258e-2 0.70771272
vn -0.70988066 1.0282860e-2 0.70424691
vn -0.71235621 8.2955192e-3 0.70176906
vn -0.72772389 -1.3235930e-2 0.68574248
vn -0.99922537 3.1610358e-2 2.3440387e-2
vn -0.99908457 2.4293320e-2 3.5211538e-2
vn -0.99970313 -1.5221740e-2 1.9024786e-2
vn -0.99960335 -2.7023242e-2 7.9303383e-3
vn -0.72929513 4.2172240e-2 -0.68289832
vn -0.71799420 -3.6547168e-3 -0.69603949
vn -0.70550263 -3.7372721e-2 -0.70772122
vn -0.70568233 -1.6656088e-2 -0.70833256
vn -6.3408477e-5 2.3179866e-2 -0.99973131
vn -6.1294989e-3 1.4733719e-2 -0.99987267
vn -1.7266339e-2 -1.8432222e-2 -0.99968101
vn -4.6234085e-2 -3.9259818e-2 -0.99815884
vn 0.72534185 4.0269382e-2 -0.68721000
vn 0.69997005 1.8226532e-2 -0.71393958
vn 0.67906892 -8.5142822e-3 -0.73402514
vn 0.67057424 -2.8453640e-2 -0.74129655
g Leaf-A_2_default
usemtl default
s 1
f 1//1 4//4 2//2
f 1//1 8//8 4//4
f 1//1 17//17 8//8
f 2//2 4//4 3//3
f 2//2 17//17 1//1
f 2//2 21//21 17//17
f 2//2 25//25 21//21
f 3//3 25//25 2//2
f 4//4 8//8 5//5
f 4//4 25//25 3//3
f 4//4 29//29 25//25
f 4//4 33//33 29//29
f 5//5 7//7 6//6
f 5//5 8//8 7//7
f 5//5 33//33 4//4
f 6//6 33//33 5//5
f 6//6 37//37 33//33
f 6//6 41//41 37//37
f 7//7 41//41 6//6
f 8//8 41//41 7//7
f 8//8 45//45 41//41
f 9//9 24//24 10//10
f 9//9 48//48 20//20
f 10//10 16//16 9//9
f 10//10 24//24 11//11
f 11//11 12//12 10//10
f 11//11 32//32 12//12
f 12//12 13//13 10//10
f 12//12 32//32 13//13
f 13//13 15//15 10//10
f 13//13 40//40 14//14
f 14//14 15//15 13//13
f 14//14 40//40 15//15
f 15//15 16//16 10//10
f 15//15 48//48 16//16
f 16//16 48//48 9//9
f 17//17 22//22 18//18
f 17//17 45//45 8//8
f 17//17 46//46 45//45
f 18//18 22//22 19//19
f 18//18 46//46 17//17
f 19//19 24//24 20//20
f 19//19 46//46 18//18
f 19//19 47//47 46//46
f 19//19 48//48 47//47
f 20//20 24//24 9//9
f 20//20 48//48 19//19
f 21//21 22//22 17//17
f 21//21 25//25 22//22
f 22//22 23//23 19//19
f 22//22 27//27 23//23
f 23//23 24//24 19//19
f 23//23 27//27 24//24
f 24//24 28//28 11//11
f 25//25 26//26 22//22
f 25//25 30//30 26//26
f 26//26 27//27 22//22
f 26//26 30//30 27//27
f 27//27 28//28 24//24
f 27//27 32//32 28//28
f 28//28 32//32 11//11
f 29//29 30//30 25//25
f 29//29 33//33 30//30
f 30//30 31//31 27//27
f 30//30 35//35 31//31
f 31//31 32//32 27//27
f 31//31 35//35 32//32
f 32//32 36//36 13//13
f 33//33 34//34 30//30
f 33//33 38//38 34//34
f 34//34 35//35 30//30
f 34//34 38//38 35//35
f 35//35 36//36 32//32
f 35//35 40//40 36//36
f 36//36 40//40 13//13
f 37//37 38//38 33//33
f 37//37 41//41 38//38
f 38//38 39//39 35//35
f 38//38 43//43 39//39
f 39//39 40//40 35//35
f 39//39 43//43 40//40
f 40//40 44//44 15//15
f 41//41 42//42 38//38
f 41//41 46//46 42//42
f 42//42 43//43 38//38
f 42//42 46//46 43//43
f 43//43 44//44 40//40
f 43//43 48//48 44//44
f 44//44 48//48 15//15
f 45//45 46//46 41//41
f 46//46 47//47 43//43
f 47//47 48//48 43//43
