# Exported from Wings 3D 2.2.4
mtllib Leaf-D_4.mtl
o Leaf-D_4
#48 vertices, 92 faces
v 0.36965076 4.41221479 1.8997744e-4
v 0.26188071 4.41221479 0.26036991
v 1.7007615e-3 4.41221479 0.36813998
v -0.25847917 4.41221479 0.26036991
v -0.36624924 4.41221479 1.8997744e-4
v -0.25847917 4.41221479 -0.25998997
v 1.7007615e-3 4.41221479 -0.36776002
v 0.26188071 4.41221479 -0.25998997
v 0.97175076 1.73621479 1.8997744e-4
v 0.68762970 1.73621479 0.68611891
v 1.7007615e-3 1.73621479 0.97023998
v -0.68422817 1.73621479 0.68611891
v -0.96834924 1.73621479 1.8997744e-4
v -0.68422817 1.73621479 -0.68573896
v 1.7007615e-3 1.73621479 -0.96986002
v 0.68762970 1.73621479 -0.68573896
v 0.49007076 3.87701479 1.8997744e-4
v 0.61049076 3.34181479 1.8997744e-4
v 0.73091076 2.80661479 1.8997744e-4
v 0.85133076 2.27141479 1.8997744e-4
v 0.34703050 3.87701479 0.34551971
v 0.43218030 3.34181479 0.43066951
v 0.51733010 2.80661479 0.51581931
v 0.60247990 2.27141479 0.60096911
v 1.7007615e-3 3.87701479 0.48855998
v 1.7007615e-3 3.34181479 0.60897998
v 1.7007615e-3 2.80661479 0.72939998
v 1.7007615e-3 2.27141479 0.84981998
v -0.34362897 3.87701479 0.34551971
v -0.42877877 3.34181479 0.43066951
v -0.51392857 2.80661479 0.51581931
v -0.59907837 2.27141479 0.60096911
v -0.48666924 3.87701479 1.8997744e-4
v -0.60708924 3.34181479 1.8997744e-4
v -0.72750924 2.80661479 1.8997744e-4
v -0.84792924 2.27141479 1.8997744e-4
v -0.34362897 3.87701479 -0.34513976
v -0.42877877 3.34181479 -0.43028956
v -0.51392857 2.80661479 -0.51543936
v -0.59907837 2.27141479 -0.60058916
v 1.7007615e-3 3.87701479 -0.48818002
v 1.7007615e-3 3.34181479 -0.60860002
v 1.7007615e-3 2.80661479 -0.72902002
v 1.7007615e-3 2.27141479 -0.84944002
v 0.34703050 3.87701479 -0.34513976
v 0.43218030 3.34181479 -0.43028956
v 0.51733010 2.80661479 -0.51543936
v 0.60247990 2.27141479 -0.60058916
vn 0.78935700 0.61393447 3.2954985e-9
vn 0.55815969 0.61393447 0.55815967
vn -2.6620820e-9 0.88321304 0.46897200
vn -0.48665081 0.72549430 0.48665081
vn -0.78935699 0.61393448 3.2954988e-9
vn -0.55815967 0.61393447 -0.55815969
vn -2.6620818e-9 0.88321303 -0.46897200
vn 0.48665080 0.72549431 -0.48665080
vn 0.85592264 -0.51710390 1.4419186e-9
vn 0.53069495 -0.66085229 0.53069494
vn -2.2874969e-9 -5.1314952e-2 0.99868252
vn -0.40460060 -0.82011994 0.40460060
vn -0.85592264 -0.51710390 1.4419186e-9
vn -0.53069494 -0.66085229 -0.53069495
vn -2.2874969e-9 -5.1314951e-2 -0.99868252
vn 0.40460060 -0.82011994 -0.40460060
vn 0.97560976 0.21951219 3.1464385e-9
vn 0.97560976 0.21951220 2.4617565e-9
vn 0.97560976 0.21951219 2.0695340e-9
vn 0.97560976 0.21951220 1.7639358e-9
vn 0.68986028 0.21951219 0.68986027
vn 0.68986028 0.21951219 0.68986027
vn 0.68986028 0.21951219 0.68986027
vn 0.68986028 0.21951219 0.68986027
vn -4.2780526e-9 0.21951220 0.97560976
vn -3.3471253e-9 0.21951220 0.97560976
vn -2.8138403e-9 0.21951220 0.97560976
vn -2.3983339e-9 0.21951220 0.97560976
vn -0.68986027 0.21951219 0.68986027
vn -0.68986027 0.21951219 0.68986027
vn -0.68986027 0.21951219 0.68986027
vn -0.68986027 0.21951219 0.68986027
vn -0.97560976 0.21951220 3.1464388e-9
vn -0.97560976 0.21951220 2.4617567e-9
vn -0.97560976 0.21951220 2.0695342e-9
vn -0.97560976 0.21951220 1.7639358e-9
vn -0.68986027 0.21951219 -0.68986028
vn -0.68986027 0.21951219 -0.68986028
vn -0.68986027 0.21951219 -0.68986028
vn -0.68986027 0.21951219 -0.68986028
vn -4.2780523e-9 0.21951219 -0.97560976
vn -3.3471251e-9 0.21951220 -0.97560976
vn -2.8138403e-9 0.21951219 -0.97560976
vn -2.3983338e-9 0.21951220 -0.97560976
vn 0.68986027 0.21951219 -0.68986027
vn 0.68986027 0.21951220 -0.68986027
vn 0.68986027 0.21951219 -0.68986027
vn 0.68986027 0.21951220 -0.68986027
g Leaf-D_4_default
usemtl default
s 1
f 1//1 8//8 2//2
f 1//1 17//17 8//8
f 2//2 8//8 3//3
f 2//2 17//17 1//1
f 2//2 21//21 17//17
f 2//2 25//25 21//21
f 3//3 7//7 4//4
f 3//3 8//8 7//7
f 3//3 25//25 2//2
f 4//4 6//6 5//5
f 4//4 7//7 6//6
f 4//4 25//25 3//3
f 4//4 29//29 25//25
f 4//4 33//33 29//29
f 5//5 33//33 4//4
f 6//6 33//33 5//5
f 6//6 37//37 33//33
f 6//6 41//41 37//37
f 7//7 41//41 6//6
f 8//8 41//41 7//7
f 8//8 45//45 41//41
f 9//9 24//24 10//10
f 9//9 48//48 20//20
f 10//10 12//12 9//9
f 10//10 24//24 11//11
f 11//11 12//12 10//10
f 11//11 32//32 12//12
f 12//12 13//13 9//9
f 12//12 32//32 13//13
f 13//13 16//16 9//9
f 13//13 40//40 14//14
f 14//14 16//16 13//13
f 14//14 40//40 15//15
f 15//15 16//16 14//14
f 15//15 48//48 16//16
f 16//16 48//48 9//9
f 17//17 22//22 18//18
f 17//17 45//45 8//8
f 17//17 46//46 45//45
f 18//18 22//22 19//19
f 18//18 46//46 17//17
f 19//19 24//24 20//20
f 19//19 46//46 18//18
f 19//19 47//47 46//46
f 19//19 48//48 47//47
f 20//20 24//24 9//9
f 20//20 48//48 19//19
f 21//21 22//22 17//17
f 21//21 25//25 22//22
f 22//22 23//23 19//19
f 22//22 27//27 23//23
f 23//23 24//24 19//19
f 23//23 27//27 24//24
f 24//24 28//28 11//11
f 25//25 26//26 22//22
f 25//25 30//30 26//26
f 26//26 27//27 22//22
f 26//26 30//30 27//27
f 27//27 28//28 24//24
f 27//27 32//32 28//28
f 28//28 32//32 11//11
f 29//29 30//30 25//25
f 29//29 33//33 30//30
f 30//30 31//31 27//27
f 30//30 35//35 31//31
f 31//31 32//32 27//27
f 31//31 35//35 32//32
f 32//32 36//36 13//13
f 33//33 34//34 30//30
f 33//33 38//38 34//34
f 34//34 35//35 30//30
f 34//34 38//38 35//35
f 35//35 36//36 32//32
f 35//35 40//40 36//36
f 36//36 40//40 13//13
f 37//37 38//38 33//33
f 37//37 41//41 38//38
f 38//38 39//39 35//35
f 38//38 43//43 39//39
f 39//39 40//40 35//35
f 39//39 43//43 40//40
f 40//40 44//44 15//15
f 41//41 42//42 38//38
f 41//41 46//46 42//42
f 42//42 43//43 38//38
f 42//42 46//46 43//43
f 43//43 44//44 40//40
f 43//43 48//48 44//44
f 44//44 48//48 15//15
f 45//45 46//46 41//41
f 46//46 47//47 43//43
f 47//47 48//48 43//43
