# Exported from Wings 3D 2.2.4
mtllib Leaf-A_8.mtl
o Leaf-A_8
#64 vertices, 124 faces
v 0.74754232 3.90477178 3.4064673e-2
v 0.74628701 3.36636858 9.1272608e-3
v 0.72461282 2.78880717 2.2426074e-2
v 0.70148480 2.23099639 3.9672571e-2
v 0.52639070 3.87152985 0.52638017
v 0.53146401 3.35127363 0.53400601
v 0.52808435 2.78963365 0.53772551
v 0.49391242 2.24909521 0.46665581
v 4.3081830e-4 3.91643392 0.68464040
v 6.7135644e-3 3.36431059 0.74088995
v 5.6733784e-2 2.77853619 0.73513112
v 8.1243088e-3 2.25422068 0.70194389
v -0.46362237 3.91591956 0.49250454
v -0.52253344 3.39079740 0.56642034
v -0.55102898 2.78203439 0.53325325
v -0.48674815 2.22794836 0.53482373
v -0.70629442 3.88294148 2.1779840e-2
v -0.74993701 3.37255930 2.6148835e-2
v -0.72952174 2.78302580 6.3668634e-2
v -0.69372485 2.23076111 -2.9770392e-2
v -0.45491533 3.90945971 -0.50505292
v -0.50177501 3.36634685 -0.49645327
v -0.54411642 2.77999272 -0.48362749
v -0.49932035 2.24618595 -0.46105715
v 3.0136916e-2 3.90601691 -0.67457574
v 1.4657616e-3 3.35988490 -0.75328714
v 1.5960734e-2 2.79838484 -0.70661038
v 1.9699633e-2 2.21608665 -0.69328521
v 0.53013523 3.88378612 -0.48519317
v 0.53952966 3.35414024 -0.47425708
v 0.56779563 2.77014711 -0.46948001
v 0.50606438 2.22602727 -0.42772029
v 0.66960393 4.24842428 2.4896648e-2
v 0.49491747 4.27912192 0.51157765
v 3.6846275e-2 4.33047960 0.63405037
v -0.46449858 4.33274195 0.46898568
v -0.67440180 4.28726766 5.5756131e-2
v -0.47404707 4.32132561 -0.45242470
v 2.2431033e-2 4.31001010 -0.65174046
v 0.46546721 4.29115252 -0.47237768
v 0.66561393 1.88189936 4.5116754e-3
v 0.47076692 1.83335048 0.48929551
v 1.1202204e-2 1.87337833 0.70641592
v -0.47780367 1.85226640 0.52290328
v -0.64529669 1.85444958 1.5892233e-2
v -0.47018965 1.79263482 -0.46120995
v 5.7659175e-3 1.83661223 -0.68049171
v 0.47804828 1.87107746 -0.45045150
v 0.41366183 4.41875484 0.42394009
v 0.54126496 4.43611073 1.9842153e-3
v 0.38962929 4.43186757 -0.31436877
v 1.8179637e-2 4.41550168 -0.50950158
v -0.38310014 4.41378744 -0.35371531
v -0.58024281 4.40338551 2.2374735e-2
v -0.32574438 4.42558838 0.38483659
v -7.7271236e-3 4.40527293 0.57806021
v 0.56351255 1.75806598 2.1581489e-2
v 0.39594177 1.71340926 0.40220901
v 1.0462270e-2 1.75629687 0.54499324
v -0.36469244 1.71282220 0.43154262
v -0.51981140 1.76568175 2.5500567e-2
v -0.36085558 1.71676060 -0.38485049
v 1.0198887e-2 1.72390678 -0.52336092
v 0.36346965 1.74026450 -0.40587760
vn 0.99576905 9.1888533e-2 -7.0850857e-4
vn 0.99977211 -1.9818028e-2 -7.9349923e-3
vn 0.99876342 -4.5532846e-2 1.9959814e-2
vn 0.99691806 -7.2820042e-2 2.9182609e-2
vn 0.65877762 4.7762506e-2 0.75082008
vn 0.69668795 1.4624542e-2 0.71722522
vn 0.71763160 -6.7824414e-2 0.69311235
vn 0.71334223 -6.6635052e-2 0.69764077
vn -2.1196379e-2 9.5723551e-2 0.99518225
vn 2.9879855e-2 4.7232401e-2 0.99843693
vn 4.1281031e-2 -4.7205292e-2 0.99803183
vn 6.2256148e-2 -2.8302681e-2 0.99765882
vn -0.67532903 0.10860999 0.72947555
vn -0.68113110 6.1752240e-2 0.72955267
vn -0.69097380 -4.2448957e-2 0.72163238
vn -0.70034651 -5.9660954e-2 0.71130537
vn -0.99691979 7.7434307e-2 1.2444668e-2
vn -0.99943414 2.4574459e-2 -2.2967069e-2
vn -0.99923664 -3.8690681e-2 -5.4009295e-3
vn -0.99477127 -9.5191164e-2 -3.6996834e-2
vn -0.66733625 5.4856971e-2 -0.74273349
vn -0.70719069 3.1267070e-2 -0.70633116
vn -0.72448948 -2.6217297e-2 -0.68878708
vn -0.71628383 -5.9998426e-2 -0.69522490
vn 9.3497902e-3 7.4405247e-2 -0.99718426
vn 4.5441372e-3 3.0057626e-2 -0.99953784
vn 1.6615877e-2 -4.8734813e-2 -0.99867354
vn 3.9167278e-2 -2.8859308e-2 -0.99881583
vn 0.69214175 6.4720494e-2 -0.71885399
vn 0.72564212 8.6845976e-3 -0.68801751
vn 0.73912729 -5.2147359e-2 -0.67154412
vn 0.73744946 -5.9029884e-2 -0.67281778
vn 0.91599974 0.40059864 -2.1568477e-2
vn 0.63361926 0.41477582 0.65306022
vn -1.5238207e-2 0.37178346 0.92819441
vn -0.59611041 0.44211104 0.67021654
vn -0.92587575 0.37669637 2.9222229e-2
vn -0.62246647 0.46678683 -0.62820820
vn 1.5093109e-2 0.48417771 -0.87483949
vn 0.64008462 0.46273963 -0.61332187
vn 0.91916880 -0.39384455 -3.8967728e-3
vn 0.67886353 -0.37524840 0.63113624
vn 3.8661441e-2 -0.42373578 0.90496038
vn -0.64772922 -0.41711517 0.63754357
vn -0.86646123 -0.49921078 5.7911428e-3
vn -0.62633232 -0.53013584 -0.57154511
vn 4.9086287e-2 -0.45275515 -0.89028271
vn 0.68265830 -0.36371713 -0.63378821
vn 0.28738015 0.90247917 0.32084888
vn 0.56252712 0.82668551 -1.2422116e-2
vn 0.23188877 0.94083400 -0.24710117
vn 8.9432117e-3 0.91188383 -0.41035094
vn -0.22046696 0.95012739 -0.22057258
vn -0.54563818 0.83801952 -1.5068904e-3
vn -0.10279989 0.98888487 0.10741922
vn -1.7743245e-3 0.77930104 0.62664722
vn 0.38348293 -0.92163224 -5.9454594e-2
vn 0.39550576 -0.84309030 0.36438159
vn 7.9343178e-3 -0.99116674 0.13238408
vn -0.31924028 -0.88966400 0.32647145
vn -0.20349289 -0.97906666 -4.3719919e-3
vn -0.30132231 -0.91888062 -0.25468270
vn 1.9824170e-2 -0.97960894 -0.19993328
vn 0.38197971 -0.86286962 -0.33097963
g Leaf-A_8_default
usemtl default
s 1
f 1//1 6//6 2//2
f 1//1 30//30 29//29
f 1//1 34//34 5//5
f 1//1 40//40 33//33
f 2//2 6//6 3//3
f 2//2 30//30 1//1
f 3//3 8//8 4//4
f 3//3 30//30 2//2
f 3//3 31//31 30//30
f 3//3 32//32 31//31
f 4//4 32//32 3//3
f 4//4 41//41 32//32
f 5//5 6//6 1//1
f 5//5 9//9 6//6
f 5//5 34//34 9//9
f 6//6 7//7 3//3
f 6//6 11//11 7//7
f 7//7 8//8 3//3
f 7//7 11//11 8//8
f 8//8 41//41 4//4
f 8//8 42//42 41//41
f 8//8 43//43 42//42
f 9//9 10//10 6//6
f 9//9 14//14 10//10
f 9//9 36//36 13//13
f 10//10 11//11 6//6
f 10//10 14//14 11//11
f 11//11 12//12 8//8
f 11//11 16//16 12//12
f 12//12 43//43 8//8
f 13//13 14//14 9//9
f 13//13 17//17 14//14
f 13//13 36//36 17//17
f 14//14 15//15 11//11
f 14//14 19//19 15//15
f 15//15 16//16 11//11
f 15//15 19//19 16//16
f 16//16 43//43 12//12
f 16//16 44//44 43//43
f 16//16 45//45 44//44
f 17//17 18//18 14//14
f 17//17 22//22 18//18
f 17//17 38//38 21//21
f 18//18 19//19 14//14
f 18//18 22//22 19//19
f 19//19 20//20 16//16
f 19//19 24//24 20//20
f 20//20 45//45 16//16
f 21//21 22//22 17//17
f 21//21 25//25 22//22
f 21//21 38//38 25//25
f 22//22 23//23 19//19
f 22//22 27//27 23//23
f 23//23 24//24 19//19
f 23//23 27//27 24//24
f 24//24 45//45 20//20
f 24//24 46//46 45//45
f 24//24 47//47 46//46
f 25//25 26//26 22//22
f 25//25 30//30 26//26
f 25//25 40//40 29//29
f 26//26 27//27 22//22
f 26//26 30//30 27//27
f 27//27 28//28 24//24
f 27//27 32//32 28//28
f 28//28 47//47 24//24
f 29//29 30//30 25//25
f 29//29 40//40 1//1
f 30//30 31//31 27//27
f 31//31 32//32 27//27
f 32//32 47//47 28//28
f 32//32 48//48 47//47
f 33//33 34//34 1//1
f 33//33 50//50 34//34
f 34//34 35//35 9//9
f 34//34 50//50 49//49
f 34//34 56//56 35//35
f 35//35 36//36 9//9
f 35//35 56//56 36//36
f 36//36 37//37 17//17
f 36//36 54//54 37//37
f 36//36 55//55 54//54
f 36//36 56//56 55//55
f 37//37 38//38 17//17
f 37//37 54//54 38//38
f 38//38 39//39 25//25
f 38//38 52//52 39//39
f 38//38 53//53 52//52
f 38//38 54//54 53//53
f 39//39 40//40 25//25
f 39//39 52//52 40//40
f 40//40 50//50 33//33
f 40//40 51//51 50//50
f 40//40 52//52 51//51
f 41//41 48//48 32//32
f 41//41 58//58 57//57
f 41//41 64//64 48//48
f 42//42 58//58 41//41
f 43//43 58//58 42//42
f 43//43 59//59 58//58
f 43//43 60//60 59//59
f 44//44 60//60 43//43
f 45//45 60//60 44//44
f 45//45 61//61 60//60
f 45//45 62//62 61//61
f 46//46 62//62 45//45
f 47//47 62//62 46//46
f 47//47 63//63 62//62
f 47//47 64//64 63//63
f 48//48 64//64 47//47
f 49//49 56//56 34//34
f 50//50 55//55 49//49
f 51//51 55//55 50//50
f 52//52 55//55 51//51
f 53//53 55//55 52//52
f 54//54 55//55 53//53
f 55//55 56//56 49//49
f 57//57 64//64 41//41
f 58//58 59//59 57//57
f 59//59 64//64 57//57
f 60//60 61//61 59//59
f 61//61 63//63 59//59
f 62//62 63//63 61//61
f 63//63 64//64 59//59
