# Exported from Wings 3D 2.2.4
mtllib Leaf-C_0.mtl
o Leaf-C_0
#64 vertices, 124 faces
v 0.88115292 3.91591400 1.8997722e-4
v 0.80624286 3.38018038 1.8997722e-4
v 0.69418212 2.78054816 1.8997722e-4
v 0.52330834 2.22749847 1.8997722e-4
v 0.62356735 3.91591400 0.62205656
v 0.57059793 3.38018038 0.56908715
v 0.49135903 2.78054816 0.48984825
v 0.37053301 2.22749847 0.36902223
v 1.7007619e-3 3.91591400 0.87964214
v 1.7007619e-3 3.38018038 0.80473207
v 1.7007619e-3 2.78054816 0.69267135
v 1.7007619e-3 2.22749847 0.52179756
v -0.62016582 3.91591400 0.62205656
v -0.56719641 3.38018038 0.56908715
v -0.48795751 2.78054816 0.48984825
v -0.36713149 2.22749847 0.36902223
v -0.87775140 3.91591400 1.8997722e-4
v -0.80284133 3.38018038 1.8997722e-4
v -0.69078061 2.78054816 1.8997722e-4
v -0.51990682 2.22749847 1.8997722e-4
v -0.62016582 3.91591400 -0.62167661
v -0.56719641 3.38018038 -0.56870719
v -0.48795751 2.78054816 -0.48946829
v -0.36713149 2.22749847 -0.36864228
v 1.7007619e-3 3.91591400 -0.87926219
v 1.7007619e-3 3.38018038 -0.80435212
v 1.7007619e-3 2.78054816 -0.69229138
v 1.7007619e-3 2.22749847 -0.52141760
v 0.62356735 3.91591400 -0.62167661
v 0.57059793 3.38018038 -0.56870719
v 0.49135903 2.78054816 -0.48946829
v 0.37053301 2.22749847 -0.36864228
v 0.94741499 4.30760601 1.8997722e-4
v 0.67042171 4.30760601 0.66891091
v 1.7007619e-3 4.30760601 0.94590420
v -0.66702017 4.30760601 0.66891091
v -0.94401346 4.30760601 1.8997722e-4
v -0.66702017 4.30760601 -0.66853097
v 1.7007619e-3 4.30760601 -0.94552425
v 0.67042171 4.30760601 -0.66853097
v 0.40541039 1.83692496 1.8997722e-4
v 0.28716658 1.83692496 0.28565580
v 1.7007619e-3 1.83692496 0.40389961
v -0.28376506 1.83692496 0.28565580
v -0.40200887 1.83692496 1.8997722e-4
v -0.28376506 1.83692496 -0.28527584
v 1.7007619e-3 1.83692496 -0.40351965
v 0.28716658 1.83692496 -0.28527584
v 0.59484591 4.42293558 0.59333512
v 0.84053468 4.42293558 1.8997722e-4
v 0.59484591 4.42293558 -0.59295517
v 1.7007619e-3 4.42293558 -0.83864394
v -0.59144438 4.42293558 -0.59295517
v -0.83713315 4.42293558 1.8997722e-4
v -0.59144438 4.42293558 0.59333512
v 1.7007619e-3 4.42293558 0.83902389
v 0.24227499 1.72523041 1.8997722e-4
v 0.17181243 1.72523041 0.17030166
v 1.7007619e-3 1.72523041 0.24076421
v -0.16841091 1.72523041 0.17030166
v -0.23887347 1.72523041 1.8997722e-4
v -0.16841091 1.72523041 -0.16992169
v 1.7007619e-3 1.72523041 -0.24038425
v 0.17181243 1.72523041 -0.16992169
vn 0.98827884 -0.15265955 7.5425088e-10
vn 0.98693068 -0.16114538 -2.2408778e-9
vn 0.97078382 -0.23995580 -1.2337857e-9
vn 0.95639062 -0.29209072 2.8321307e-9
vn 0.69881867 -0.15265955 0.69881866
vn 0.69786538 -0.16114538 0.69786538
vn 0.68644782 -0.23995580 0.68644782
vn 0.67627029 -0.29209071 0.67627029
vn -1.3743098e-9 -0.15265955 0.98827884
vn 1.5653188e-9 -0.16114538 0.98693068
vn 1.8648381e-9 -0.23995579 0.97078382
vn 2.3601090e-9 -0.29209072 0.95639062
vn -0.69881867 -0.15265954 0.69881867
vn -0.69786538 -0.16114538 0.69786538
vn -0.68644782 -0.23995580 0.68644782
vn -0.67627029 -0.29209071 0.67627029
vn -0.98827884 -0.15265955 7.5425090e-10
vn -0.98693068 -0.16114538 -2.2408778e-9
vn -0.97078382 -0.23995579 -1.2337857e-9
vn -0.95639062 -0.29209072 2.8321306e-9
vn -0.69881867 -0.15265955 -0.69881867
vn -0.69786538 -0.16114538 -0.69786537
vn -0.68644782 -0.23995579 -0.68644782
vn -0.67627029 -0.29209071 -0.67627030
vn -1.3743098e-9 -0.15265955 -0.98827884
vn 1.5653189e-9 -0.16114539 -0.98693068
vn 1.8648380e-9 -0.23995579 -0.97078382
vn 2.3601088e-9 -0.29209072 -0.95639062
vn 0.69881867 -0.15265956 -0.69881866
vn 0.69786538 -0.16114538 -0.69786537
vn 0.68644782 -0.23995579 -0.68644782
vn 0.67627029 -0.29209071 -0.67627030
vn 0.95591828 0.29363282 1.5939783e-9
vn 0.67593630 0.29363283 0.67593630
vn -2.1672512e-9 0.29363284 0.95591828
vn -0.67593630 0.29363284 0.67593630
vn -0.95591828 0.29363284 1.5939785e-9
vn -0.67593630 0.29363284 -0.67593630
vn -2.1672512e-9 0.29363284 -0.95591828
vn 0.67593630 0.29363283 -0.67593630
vn 0.80212026 -0.59716253 -2.0967007e-9
vn 0.56718468 -0.59716253 0.56718467
vn 2.7102726e-9 -0.59716253 0.80212026
vn -0.56718468 -0.59716253 0.56718468
vn -0.80212026 -0.59716253 -2.0967003e-9
vn -0.56718467 -0.59716254 -0.56718467
vn 2.7102725e-9 -0.59716254 -0.80212026
vn 0.56718467 -0.59716254 -0.56718467
vn 0.21938179 0.95065412 0.21938179
vn 0.44803182 0.89401761 7.6531514e-10
vn 0.27670531 0.92025450 -0.27670531
vn -1.4277839e-9 0.78871587 -0.61475790
vn -0.21938179 0.95065412 -0.21938179
vn -0.44803182 0.89401761 7.6531524e-10
vn -0.27670531 0.92025450 0.27670531
vn -1.4277837e-9 0.78871587 0.61475790
vn 0.23227961 -0.97264905 -1.9515202e-9
vn 0.27493831 -0.92131311 0.27493831
vn 2.2819005e-9 -0.92131311 0.38882149
vn -0.23603228 -0.94264390 0.23603228
vn -0.23227961 -0.97264905 -1.9515175e-9
vn -0.27493831 -0.92131311 -0.27493831
vn 2.2819004e-9 -0.92131311 -0.38882149
vn 0.23603228 -0.94264390 -0.23603228
g Leaf-C_0_default
usemtl default
s 1
f 1//1 6//6 2//2
f 1//1 30//30 29//29
f 1//1 34//34 5//5
f 1//1 40//40 33//33
f 2//2 6//6 3//3
f 2//2 30//30 1//1
f 3//3 8//8 4//4
f 3//3 30//30 2//2
f 3//3 31//31 30//30
f 3//3 32//32 31//31
f 4//4 32//32 3//3
f 4//4 41//41 32//32
f 5//5 6//6 1//1
f 5//5 9//9 6//6
f 5//5 34//34 9//9
f 6//6 7//7 3//3
f 6//6 11//11 7//7
f 7//7 8//8 3//3
f 7//7 11//11 8//8
f 8//8 41//41 4//4
f 8//8 42//42 41//41
f 8//8 43//43 42//42
f 9//9 10//10 6//6
f 9//9 14//14 10//10
f 9//9 36//36 13//13
f 10//10 11//11 6//6
f 10//10 14//14 11//11
f 11//11 12//12 8//8
f 11//11 16//16 12//12
f 12//12 43//43 8//8
f 13//13 14//14 9//9
f 13//13 17//17 14//14
f 13//13 36//36 17//17
f 14//14 15//15 11//11
f 14//14 19//19 15//15
f 15//15 16//16 11//11
f 15//15 19//19 16//16
f 16//16 43//43 12//12
f 16//16 44//44 43//43
f 16//16 45//45 44//44
f 17//17 18//18 14//14
f 17//17 22//22 18//18
f 17//17 38//38 21//21
f 18//18 19//19 14//14
f 18//18 22//22 19//19
f 19//19 20//20 16//16
f 19//19 24//24 20//20
f 20//20 45//45 16//16
f 21//21 22//22 17//17
f 21//21 25//25 22//22
f 21//21 38//38 25//25
f 22//22 23//23 19//19
f 22//22 27//27 23//23
f 23//23 24//24 19//19
f 23//23 27//27 24//24
f 24//24 45//45 20//20
f 24//24 46//46 45//45
f 24//24 47//47 46//46
f 25//25 26//26 22//22
f 25//25 30//30 26//26
f 25//25 40//40 29//29
f 26//26 27//27 22//22
f 26//26 30//30 27//27
f 27//27 28//28 24//24
f 27//27 32//32 28//28
f 28//28 47//47 24//24
f 29//29 30//30 25//25
f 29//29 40//40 1//1
f 30//30 31//31 27//27
f 31//31 32//32 27//27
f 32//32 47//47 28//28
f 32//32 48//48 47//47
f 33//33 34//34 1//1
f 33//33 50//50 34//34
f 34//34 35//35 9//9
f 34//34 50//50 49//49
f 34//34 56//56 35//35
f 35//35 36//36 9//9
f 35//35 56//56 36//36
f 36//36 37//37 17//17
f 36//36 54//54 37//37
f 36//36 55//55 54//54
f 36//36 56//56 55//55
f 37//37 38//38 17//17
f 37//37 54//54 38//38
f 38//38 39//39 25//25
f 38//38 52//52 39//39
f 38//38 53//53 52//52
f 38//38 54//54 53//53
f 39//39 40//40 25//25
f 39//39 52//52 40//40
f 40//40 50//50 33//33
f 40//40 51//51 50//50
f 40//40 52//52 51//51
f 41//41 48//48 32//32
f 41//41 58//58 57//57
f 41//41 64//64 48//48
f 42//42 58//58 41//41
f 43//43 58//58 42//42
f 43//43 59//59 58//58
f 43//43 60//60 59//59
f 44//44 60//60 43//43
f 45//45 60//60 44//44
f 45//45 61//61 60//60
f 45//45 62//62 61//61
f 46//46 62//62 45//45
f 47//47 62//62 46//46
f 47//47 63//63 62//62
f 47//47 64//64 63//63
f 48//48 64//64 47//47
f 49//49 56//56 34//34
f 50//50 54//54 49//49
f 51//51 53//53 50//50
f 52//52 53//53 51//51
f 53//53 54//54 50//50
f 54//54 55//55 49//49
f 55//55 56//56 49//49
f 57//57 64//64 41//41
f 58//58 60//60 57//57
f 59//59 60//60 58//58
f 60//60 61//61 57//57
f 61//61 64//64 57//57
f 62//62 64//64 61//61
f 63//63 64//64 62//62
