# Exported from Wings 3D 2.2.4
mtllib Leaf-C_5.mtl
o Leaf-C_5
#64 vertices, 124 faces
v 0.85133076 3.87701479 1.8997754e-4
v 0.73091076 3.34181479 1.8997754e-4
v 0.61049076 2.80661479 1.8997754e-4
v 0.49007076 2.27141479 1.8997754e-4
v 0.60247990 3.87701479 0.60096911
v 0.51733010 3.34181479 0.51581931
v 0.43218030 2.80661479 0.43066951
v 0.34703050 2.27141479 0.34551971
v 1.7007614e-3 3.87701479 0.84981998
v 1.7007614e-3 3.34181479 0.72939998
v 1.7007614e-3 2.80661479 0.60897998
v 1.7007614e-3 2.27141479 0.48855998
v -0.59907837 3.87701479 0.60096911
v -0.51392857 3.34181479 0.51581931
v -0.42877877 2.80661479 0.43066951
v -0.34362897 2.27141479 0.34551971
v -0.84792924 3.87701479 1.8997754e-4
v -0.72750924 3.34181479 1.8997754e-4
v -0.60708924 2.80661479 1.8997754e-4
v -0.48666924 2.27141479 1.8997754e-4
v -0.59907837 3.87701479 -0.60058916
v -0.51392857 3.34181479 -0.51543936
v -0.42877877 2.80661479 -0.43028956
v -0.34362897 2.27141479 -0.34513976
v 1.7007614e-3 3.87701479 -0.84944002
v 1.7007614e-3 3.34181479 -0.72902002
v 1.7007614e-3 2.80661479 -0.60860002
v 1.7007614e-3 2.27141479 -0.48818002
v 0.60247990 3.87701479 -0.60058916
v 0.51733010 3.34181479 -0.51543936
v 0.43218030 2.80661479 -0.43028956
v 0.34703050 2.27141479 -0.34513976
v 0.94513977 4.29394372 1.8997754e-4
v 0.66881288 4.29394372 0.66730210
v 1.7007614e-3 4.29394372 0.94362898
v -0.66541136 4.29394372 0.66730210
v -0.94173824 4.29394372 1.8997754e-4
v -0.66541136 4.29394372 -0.66692214
v 1.7007614e-3 4.29394372 -0.94324903
v 0.66881288 4.29394372 -0.66692214
v 0.39626176 1.85448587 1.8997754e-4
v 0.28069752 1.85448587 0.27918673
v 1.7007614e-3 1.85448587 0.39475097
v -0.27729599 1.85448587 0.27918673
v -0.39286023 1.85448587 1.8997754e-4
v -0.27729599 1.85448587 -0.27880678
v 1.7007614e-3 1.85448587 -0.39437102
v 0.28069752 1.85448587 -0.27880678
v 0.59484591 4.41221479 0.59333512
v 0.84053468 4.41221479 1.8997754e-4
v 0.59484591 4.41221479 -0.59295517
v 1.7007614e-3 4.41221479 -0.83864394
v -0.59144438 4.41221479 -0.59295517
v -0.83713315 4.41221479 1.8997754e-4
v -0.59144438 4.41221479 0.59333512
v 1.7007614e-3 4.41221479 0.83902389
v 0.23843468 1.73621479 1.8997754e-4
v 0.16909692 1.73621479 0.16758613
v 1.7007614e-3 1.73621479 0.23692389
v -0.16569539 1.73621479 0.16758613
v -0.23503315 1.73621479 1.8997754e-4
v -0.16569539 1.73621479 -0.16720618
v 1.7007614e-3 1.73621479 -0.23654394
v 0.16909692 1.73621479 -0.16720618
vn 0.97560976 -0.21951220 7.8593703e-10
vn 0.97560976 -0.21951220 2.0552279e-9
vn 0.97560976 -0.21951219 2.4945048e-9
vn 0.97560976 -0.21951219 3.0687649e-9
vn 0.68986028 -0.21951220 0.68986027
vn 0.68986028 -0.21951219 0.68986027
vn 0.68986028 -0.21951219 0.68986027
vn 0.68986028 -0.21951219 0.68986027
vn -1.4262791e-9 -0.21951220 0.97560976
vn -2.7943890e-9 -0.21951220 0.97560976
vn -3.3916513e-9 -0.21951220 0.97560976
vn -4.1724440e-9 -0.21951220 0.97560975
vn -0.68986027 -0.21951221 0.68986027
vn -0.68986027 -0.21951219 0.68986027
vn -0.68986027 -0.21951219 0.68986027
vn -0.68986027 -0.21951219 0.68986027
vn -0.97560976 -0.21951220 7.8593691e-10
vn -0.97560976 -0.21951220 2.0552278e-9
vn -0.97560976 -0.21951220 2.4945048e-9
vn -0.97560975 -0.21951220 3.0687650e-9
vn -0.68986027 -0.21951220 -0.68986028
vn -0.68986027 -0.21951219 -0.68986028
vn -0.68986027 -0.21951219 -0.68986028
vn -0.68986027 -0.21951219 -0.68986028
vn -1.4262790e-9 -0.21951220 -0.97560976
vn -2.7943889e-9 -0.21951220 -0.97560976
vn -3.3916511e-9 -0.21951219 -0.97560976
vn -4.1724437e-9 -0.21951219 -0.97560976
vn 0.68986027 -0.21951219 -0.68986028
vn 0.68986027 -0.21951220 -0.68986027
vn 0.68986027 -0.21951219 -0.68986027
vn 0.68986027 -0.21951219 -0.68986028
vn 0.96664404 0.25612362 -1.9283962e-9
vn 0.68352055 0.25612363 0.68352055
vn 1.3470419e-9 0.25612363 0.96664403
vn -0.68352055 0.25612364 0.68352055
vn -0.96664403 0.25612363 -1.9283962e-9
vn -0.68352055 0.25612363 -0.68352055
vn 1.3470420e-9 0.25612362 -0.96664404
vn 0.68352055 0.25612362 -0.68352055
vn 0.83485471 -0.55047035 3.5022721e-9
vn 0.59033142 -0.55047036 0.59033143
vn -4.7618613e-9 -0.55047036 0.83485471
vn -0.59033143 -0.55047036 0.59033143
vn -0.83485471 -0.55047036 3.5022722e-9
vn -0.59033143 -0.55047036 -0.59033142
vn -4.7618612e-9 -0.55047035 -0.83485471
vn 0.59033143 -0.55047036 -0.59033143
vn 0.28378308 0.91593358 0.28378308
vn 0.62962724 0.77689738 -1.4988360e-9
vn 0.22487855 0.94808189 -0.22487855
vn 8.1118740e-10 0.88816567 -0.45952338
vn -0.28378308 0.91593358 -0.28378308
vn -0.62962722 0.77689740 -1.4988358e-9
vn -0.22487853 0.94808190 0.22487853
vn 8.1118733e-10 0.88816568 0.45952337
vn 0.24767178 -0.96884400 1.7609389e-9
vn 0.29331316 -0.90990921 0.29331316
vn -4.0099723e-9 -0.90990921 0.41480745
vn -0.25188348 -0.93440325 0.25188348
vn -0.24767178 -0.96884400 1.7609405e-9
vn -0.29331316 -0.90990921 -0.29331316
vn -4.0099723e-9 -0.90990921 -0.41480745
vn 0.25188348 -0.93440325 -0.25188348
g Leaf-C_5_default
usemtl default
s 1
f 1//1 6//6 2//2
f 1//1 30//30 29//29
f 1//1 34//34 5//5
f 1//1 40//40 33//33
f 2//2 6//6 3//3
f 2//2 30//30 1//1
f 3//3 8//8 4//4
f 3//3 30//30 2//2
f 3//3 31//31 30//30
f 3//3 32//32 31//31
f 4//4 32//32 3//3
f 4//4 41//41 32//32
f 5//5 6//6 1//1
f 5//5 9//9 6//6
f 5//5 34//34 9//9
f 6//6 7//7 3//3
f 6//6 11//11 7//7
f 7//7 8//8 3//3
f 7//7 11//11 8//8
f 8//8 41//41 4//4
f 8//8 42//42 41//41
f 8//8 43//43 42//42
f 9//9 10//10 6//6
f 9//9 14//14 10//10
f 9//9 36//36 13//13
f 10//10 11//11 6//6
f 10//10 14//14 11//11
f 11//11 12//12 8//8
f 11//11 16//16 12//12
f 12//12 43//43 8//8
f 13//13 14//14 9//9
f 13//13 17//17 14//14
f 13//13 36//36 17//17
f 14//14 15//15 11//11
f 14//14 19//19 15//15
f 15//15 16//16 11//11
f 15//15 19//19 16//16
f 16//16 43//43 12//12
f 16//16 44//44 43//43
f 16//16 45//45 44//44
f 17//17 18//18 14//14
f 17//17 22//22 18//18
f 17//17 38//38 21//21
f 18//18 19//19 14//14
f 18//18 22//22 19//19
f 19//19 20//20 16//16
f 19//19 24//24 20//20
f 20//20 45//45 16//16
f 21//21 22//22 17//17
f 21//21 25//25 22//22
f 21//21 38//38 25//25
f 22//22 23//23 19//19
f 22//22 27//27 23//23
f 23//23 24//24 19//19
f 23//23 27//27 24//24
f 24//24 45//45 20//20
f 24//24 46//46 45//45
f 24//24 47//47 46//46
f 25//25 26//26 22//22
f 25//25 30//30 26//26
f 25//25 40//40 29//29
f 26//26 27//27 22//22
f 26//26 30//30 27//27
f 27//27 28//28 24//24
f 27//27 32//32 28//28
f 28//28 47//47 24//24
f 29//29 30//30 25//25
f 29//29 40//40 1//1
f 30//30 31//31 27//27
f 31//31 32//32 27//27
f 32//32 47//47 28//28
f 32//32 48//48 47//47
f 33//33 34//34 1//1
f 33//33 50//50 34//34
f 34//34 35//35 9//9
f 34//34 50//50 49//49
f 34//34 56//56 35//35
f 35//35 36//36 9//9
f 35//35 56//56 36//36
f 36//36 37//37 17//17
f 36//36 54//54 37//37
f 36//36 55//55 54//54
f 36//36 56//56 55//55
f 37//37 38//38 17//17
f 37//37 54//54 38//38
f 38//38 39//39 25//25
f 38//38 52//52 39//39
f 38//38 53//53 52//52
f 38//38 54//54 53//53
f 39//39 40//40 25//25
f 39//39 52//52 40//40
f 40//40 50//50 33//33
f 40//40 51//51 50//50
f 40//40 52//52 51//51
f 41//41 48//48 32//32
f 41//41 58//58 57//57
f 41//41 64//64 48//48
f 42//42 58//58 41//41
f 43//43 58//58 42//42
f 43//43 59//59 58//58
f 43//43 60//60 59//59
f 44//44 60//60 43//43
f 45//45 60//60 44//44
f 45//45 61//61 60//60
f 45//45 62//62 61//61
f 46//46 62//62 45//45
f 47//47 62//62 46//46
f 47//47 63//63 62//62
f 47//47 64//64 63//63
f 48//48 64//64 47//47
f 49//49 56//56 34//34
f 50//50 51//51 49//49
f 51//51 56//56 49//49
f 52//52 56//56 51//51
f 53//53 55//55 52//52
f 54//54 55//55 53//53
f 55//55 56//56 52//52
f 57//57 64//64 41//41
f 58//58 60//60 57//57
f 59//59 60//60 58//58
f 60//60 61//61 57//57
f 61//61 64//64 57//57
f 62//62 64//64 61//61
f 63//63 64//64 62//62
