# Exported from Wings 3D 2.2.4
mtllib Leaf-C_1.mtl
o Leaf-C_1
#48 vertices, 92 faces
v 0.94834055 4.39517560 -2.0671343e-2
v 0.66214955 4.42369765 0.66962659
v -3.3641041e-3 4.42295559 0.99126745
v -0.69506881 4.40959513 0.61370736
v -0.94377027 4.42169383 -5.6477397e-2
v -0.67711258 4.41748521 -0.70441038
v -3.3525056e-2 4.41992250 -0.97570565
v 0.66780363 4.42501997 -0.69841056
v 0.38825527 1.74225103 -2.2610306e-2
v 0.25181405 1.73502325 0.20043091
v 6.1290878e-3 1.76231462 0.35487772
v -0.25031195 1.71892067 0.21886017
v -0.33867312 1.72002025 -3.6617654e-2
v -0.25090495 1.72927860 -0.25646519
v 3.7540972e-2 1.73407689 -0.35945818
v 0.26538598 1.72886129 -0.23932472
v 0.83782600 3.83730045 -1.7554534e-2
v 0.73941968 3.33279810 -5.7496822e-3
v 0.63580463 2.84895577 -7.9977112e-2
v 0.48891594 2.31601813 -4.8341650e-2
v 0.58812197 3.87614383 0.61408408
v 0.50662677 3.37500179 0.49562960
v 0.44307892 2.82848627 0.40786420
v 0.32608915 2.27442869 0.30537704
v -1.5794008e-2 3.91369132 0.81169049
v -1.3940879e-2 3.32994245 0.70117817
v 1.3705585e-3 2.83477030 0.60117844
v -1.2759166e-2 2.27845837 0.49394595
v -0.58433117 3.88624155 0.57422018
v -0.52077447 3.28922679 0.48684435
v -0.43454527 2.79800420 0.37911294
v -0.35198926 2.29726943 0.32730321
v -0.82607046 3.89108891 1.2182671e-3
v -0.73556058 3.37324480 -4.0466968e-2
v -0.60926302 2.83380164 2.3450693e-2
v -0.48002201 2.28223575 -1.4168852e-2
v -0.61344025 3.88612151 -0.61667498
v -0.56791988 3.34051958 -0.53570579
v -0.38578491 2.82752245 -0.46836478
v -0.36288850 2.27200700 -0.34750463
v 1.5896984e-2 3.90640005 -0.87049969
v 5.8394747e-3 3.32654333 -0.74972283
v 6.3062430e-4 2.83423094 -0.64403186
v 5.7465698e-3 2.25555627 -0.47954922
v 0.60892001 3.91401582 -0.61772975
v 0.52521277 3.32989467 -0.56266036
v 0.43084678 2.80184085 -0.45850774
v 0.31869709 2.28299857 -0.41338787
vn 0.74414298 0.66800850 -3.9831362e-3
vn 0.67239694 0.32378606 0.66561621
vn -2.9328241e-2 0.23237587 0.97218378
vn -0.54979033 0.65986546 0.51216030
vn -0.57705818 0.81665602 -8.7635448e-3
vn -0.71590918 5.0379392e-2 -0.69637343
vn -1.0775411e-2 0.66340545 -0.74818253
vn 0.60342542 0.53816601 -0.58843446
vn 0.89737138 -0.44110279 1.2366662e-2
vn 0.25492623 -0.92822020 0.27096101
vn 3.6507041e-2 -0.46065391 0.88682874
vn -0.41279806 -0.78762077 0.45743992
vn -0.67393747 -0.73862005 -1.5770726e-2
vn -0.52438876 -0.63102143 -0.57168906
vn -4.9053754e-4 -0.73394657 -0.67920703
vn 0.42693388 -0.80652960 -0.40894678
vn 0.98099303 -0.19376531 1.0377141e-2
vn 0.97846210 -0.20261709 3.9474359e-2
vn 0.97038036 -0.24112154 -1.4911908e-2
vn 0.97556144 -0.21972352 -1.2085978e-3
vn 0.66074824 -0.21908633 0.71792266
vn 0.67531170 -0.21738619 0.70476758
vn 0.70237348 -0.23096430 0.67329562
vn 0.70848871 -0.22420416 0.66916084
vn -2.7023740e-2 -0.22482314 0.97402478
vn 2.3930944e-3 -0.19193664 0.98140440
vn -5.4093653e-3 -0.21547779 0.97649376
vn 1.9569937e-2 -0.22475706 0.97421829
vn -0.69062987 -0.18719520 0.69856162
vn -0.69660634 -0.21120928 0.68566045
vn -0.69475028 -0.22791225 0.68218623
vn -0.71626883 -0.22689000 0.65990900
vn -0.98231954 -0.18645015 1.6872077e-2
vn -0.97966909 -0.19928536 2.3104442e-2
vn -0.97098188 -0.23864728 1.5545755e-2
vn -0.97141348 -0.23680506 1.6709904e-2
vn -0.71297326 -0.17869343 -0.67803967
vn -0.69951873 -0.22882349 -0.67698845
vn -0.68275308 -0.25291170 -0.68548078
vn -0.68802372 -0.23306968 -0.68724223
vn 3.1158998e-3 -0.19431303 -0.98093462
vn -7.4549527e-3 -0.20680133 -0.97835455
vn -2.3638333e-2 -0.23932949 -0.97065062
vn -6.0369722e-2 -0.25054599 -0.96622058
vn 0.70300576 -0.17764634 -0.68863973
vn 0.68376555 -0.20615403 -0.69997514
vn 0.66000977 -0.23168536 -0.71463907
vn 0.64406852 -0.24851601 -0.72347462
g Leaf-C_1_default
usemtl default
s 1
f 1//1 4//4 2//2
f 1//1 8//8 4//4
f 1//1 17//17 8//8
f 2//2 4//4 3//3
f 2//2 17//17 1//1
f 2//2 21//21 17//17
f 2//2 25//25 21//21
f 3//3 25//25 2//2
f 4//4 8//8 5//5
f 4//4 25//25 3//3
f 4//4 29//29 25//25
f 4//4 33//33 29//29
f 5//5 7//7 6//6
f 5//5 8//8 7//7
f 5//5 33//33 4//4
f 6//6 33//33 5//5
f 6//6 37//37 33//33
f 6//6 41//41 37//37
f 7//7 41//41 6//6
f 8//8 41//41 7//7
f 8//8 45//45 41//41
f 9//9 24//24 10//10
f 9//9 48//48 20//20
f 10//10 16//16 9//9
f 10//10 24//24 11//11
f 11//11 12//12 10//10
f 11//11 32//32 12//12
f 12//12 13//13 10//10
f 12//12 32//32 13//13
f 13//13 15//15 10//10
f 13//13 40//40 14//14
f 14//14 15//15 13//13
f 14//14 40//40 15//15
f 15//15 16//16 10//10
f 15//15 48//48 16//16
f 16//16 48//48 9//9
f 17//17 22//22 18//18
f 17//17 45//45 8//8
f 17//17 46//46 45//45
f 18//18 22//22 19//19
f 18//18 46//46 17//17
f 19//19 24//24 20//20
f 19//19 46//46 18//18
f 19//19 47//47 46//46
f 19//19 48//48 47//47
f 20//20 24//24 9//9
f 20//20 48//48 19//19
f 21//21 22//22 17//17
f 21//21 25//25 22//22
f 22//22 23//23 19//19
f 22//22 27//27 23//23
f 23//23 24//24 19//19
f 23//23 27//27 24//24
f 24//24 28//28 11//11
f 25//25 26//26 22//22
f 25//25 30//30 26//26
f 26//26 27//27 22//22
f 26//26 30//30 27//27
f 27//27 28//28 24//24
f 27//27 32//32 28//28
f 28//28 32//32 11//11
f 29//29 30//30 25//25
f 29//29 33//33 30//30
f 30//30 31//31 27//27
f 30//30 35//35 31//31
f 31//31 32//32 27//27
f 31//31 35//35 32//32
f 32//32 36//36 13//13
f 33//33 34//34 30//30
f 33//33 38//38 34//34
f 34//34 35//35 30//30
f 34//34 38//38 35//35
f 35//35 36//36 32//32
f 35//35 40//40 36//36
f 36//36 40//40 13//13
f 37//37 38//38 33//33
f 37//37 41//41 38//38
f 38//38 39//39 35//35
f 38//38 43//43 39//39
f 39//39 40//40 35//35
f 39//39 43//43 40//40
f 40//40 44//44 15//15
f 41//41 42//42 38//38
f 41//41 46//46 42//42
f 42//42 43//43 38//38
f 42//42 46//46 43//43
f 43//43 44//44 40//40
f 43//43 48//48 44//44
f 44//44 48//48 15//15
f 45//45 46//46 41//41
f 46//46 47//47 43//43
f 47//47 48//48 43//43
