# Exported from Wings 3D 2.2.4
mtllib Leaf-A_0.mtl
o Leaf-A_0
#48 vertices, 92 faces
v 0.67070076 4.41221479 1.8997659e-4
v 0.47475520 4.41221479 0.47324442
v 1.7007624e-3 4.41221479 0.66918998
v -0.47135368 4.41221479 0.47324442
v -0.66729924 4.41221479 1.8997659e-4
v -0.47135368 4.41221479 -0.47286446
v 1.7007624e-3 4.41221479 -0.66881002
v 0.47475520 4.41221479 -0.47286446
v 0.67070076 1.73621479 1.8997659e-4
v 0.47475520 1.73621479 0.47324442
v 1.7007624e-3 1.73621479 0.66918998
v -0.47135368 1.73621479 0.47324442
v -0.66729924 1.73621479 1.8997659e-4
v -0.47135368 1.73621479 -0.47286446
v 1.7007624e-3 1.73621479 -0.66881002
v 0.47475520 1.73621479 -0.47286446
v 0.67070076 3.87701479 1.8997659e-4
v 0.67070076 3.34181479 1.8997659e-4
v 0.67070076 2.80661479 1.8997659e-4
v 0.67070076 2.27141479 1.8997659e-4
v 0.47475520 3.87701479 0.47324442
v 0.47475520 3.34181479 0.47324442
v 0.47475520 2.80661479 0.47324442
v 0.47475520 2.27141479 0.47324442
v 1.7007624e-3 3.87701479 0.66918998
v 1.7007624e-3 3.34181479 0.66918998
v 1.7007624e-3 2.80661479 0.66918998
v 1.7007624e-3 2.27141479 0.66918998
v -0.47135368 3.87701479 0.47324442
v -0.47135368 3.34181479 0.47324442
v -0.47135368 2.80661479 0.47324442
v -0.47135368 2.27141479 0.47324442
v -0.66729924 3.87701479 1.8997659e-4
v -0.66729924 3.34181479 1.8997659e-4
v -0.66729924 2.80661479 1.8997659e-4
v -0.66729924 2.27141479 1.8997659e-4
v -0.47135368 3.87701479 -0.47286446
v -0.47135368 3.34181479 -0.47286446
v -0.47135368 2.80661479 -0.47286446
v -0.47135368 2.27141479 -0.47286446
v 1.7007624e-3 3.87701479 -0.66881002
v 1.7007624e-3 3.34181479 -0.66881002
v 1.7007624e-3 2.80661479 -0.66881002
v 1.7007624e-3 2.27141479 -0.66881002
v 0.47475520 3.87701479 -0.47286446
v 0.47475520 3.34181479 -0.47286446
v 0.47475520 2.80661479 -0.47286446
v 0.47475520 2.27141479 -0.47286446
vn 0.87946522 0.47596315 -2.3921454e-9
vn 0.62187583 0.47596315 0.62187582
vn 9.9641304e-10 0.85145490 0.52442784
vn -0.54898507 0.63026247 0.54898507
vn -0.87946522 0.47596315 -2.3921454e-9
vn -0.62187582 0.47596315 -0.62187583
vn 9.9641304e-10 0.85145490 -0.52442784
vn 0.54898507 0.63026247 -0.54898507
vn 0.77638213 -0.63026247 -2.1117597e-9
vn 0.47984149 -0.73450956 0.47984149
vn 1.8340390e-9 -0.26120388 0.96528366
vn -0.37082648 -0.85145490 0.37082648
vn -0.77638213 -0.63026247 -2.1117593e-9
vn -0.47984149 -0.73450955 -0.47984149
vn 1.8340390e-9 -0.26120388 -0.96528366
vn 0.37082648 -0.85145490 -0.37082648
vn 1.00000000 0.0000000e+0 -2.7200000e-9
vn 1.00000000 0.0000000e+0 -2.7200000e-9
vn 1.00000000 0.0000000e+0 -2.7200000e-9
vn 1.00000000 0.0000000e+0 -2.7200000e-9
vn 0.70710678 0.0000000e+0 0.70710678
vn 0.70710678 0.0000000e+0 0.70710678
vn 0.70710678 0.0000000e+0 0.70710678
vn 0.70710678 0.0000000e+0 0.70710678
vn 1.9000001e-9 0.0000000e+0 1.00000000
vn 1.9000000e-9 0.0000000e+0 1.00000000
vn 1.9000000e-9 0.0000000e+0 1.00000000
vn 1.9000000e-9 0.0000000e+0 1.00000000
vn -0.70710678 0.0000000e+0 0.70710678
vn -0.70710678 0.0000000e+0 0.70710678
vn -0.70710678 0.0000000e+0 0.70710678
vn -0.70710678 0.0000000e+0 0.70710678
vn -1.00000000 0.0000000e+0 -2.7200000e-9
vn -1.00000000 0.0000000e+0 -2.7200001e-9
vn -1.00000000 0.0000000e+0 -2.7200000e-9
vn -1.00000000 0.0000000e+0 -2.7200000e-9
vn -0.70710678 0.0000000e+0 -0.70710678
vn -0.70710678 0.0000000e+0 -0.70710678
vn -0.70710678 0.0000000e+0 -0.70710678
vn -0.70710678 0.0000000e+0 -0.70710678
vn 1.9000001e-9 0.0000000e+0 -1.00000000
vn 1.9000000e-9 0.0000000e+0 -1.00000000
vn 1.9000000e-9 0.0000000e+0 -1.00000000
vn 1.9000000e-9 0.0000000e+0 -1.00000000
vn 0.70710678 0.0000000e+0 -0.70710678
vn 0.70710678 0.0000000e+0 -0.70710678
vn 0.70710678 0.0000000e+0 -0.70710678
vn 0.70710678 0.0000000e+0 -0.70710678
g Leaf-A_0_default
usemtl default
s 1
f 1//1 8//8 2//2
f 1//1 17//17 8//8
f 2//2 8//8 3//3
f 2//2 17//17 1//1
f 2//2 21//21 17//17
f 2//2 25//25 21//21
f 3//3 7//7 4//4
f 3//3 8//8 7//7
f 3//3 25//25 2//2
f 4//4 6//6 5//5
f 4//4 7//7 6//6
f 4//4 25//25 3//3
f 4//4 29//29 25//25
f 4//4 33//33 29//29
f 5//5 33//33 4//4
f 6//6 33//33 5//5
f 6//6 37//37 33//33
f 6//6 41//41 37//37
f 7//7 41//41 6//6
f 8//8 41//41 7//7
f 8//8 45//45 41//41
f 9//9 24//24 10//10
f 9//9 48//48 20//20
f 10//10 12//12 9//9
f 10//10 24//24 11//11
f 11//11 12//12 10//10
f 11//11 32//32 12//12
f 12//12 13//13 9//9
f 12//12 32//32 13//13
f 13//13 16//16 9//9
f 13//13 40//40 14//14
f 14//14 16//16 13//13
f 14//14 40//40 15//15
f 15//15 16//16 14//14
f 15//15 48//48 16//16
f 16//16 48//48 9//9
f 17//17 22//22 18//18
f 17//17 45//45 8//8
f 17//17 46//46 45//45
f 18//18 22//22 19//19
f 18//18 46//46 17//17
f 19//19 24//24 20//20
f 19//19 46//46 18//18
f 19//19 47//47 46//46
f 19//19 48//48 47//47
f 20//20 24//24 9//9
f 20//20 48//48 19//19
f 21//21 22//22 17//17
f 21//21 25//25 22//22
f 22//22 23//23 19//19
f 22//22 27//27 23//23
f 23//23 24//24 19//19
f 23//23 27//27 24//24
f 24//24 28//28 11//11
f 25//25 26//26 22//22
f 25//25 30//30 26//26
f 26//26 27//27 22//22
f 26//26 30//30 27//27
f 27//27 28//28 24//24
f 27//27 32//32 28//28
f 28//28 32//32 11//11
f 29//29 30//30 25//25
f 29//29 33//33 30//30
f 30//30 31//31 27//27
f 30//30 35//35 31//31
f 31//31 32//32 27//27
f 31//31 35//35 32//32
f 32//32 36//36 13//13
f 33//33 34//34 30//30
f 33//33 38//38 34//34
f 34//34 35//35 30//30
f 34//34 38//38 35//35
f 35//35 36//36 32//32
f 35//35 40//40 36//36
f 36//36 40//40 13//13
f 37//37 38//38 33//33
f 37//37 41//41 38//38
f 38//38 39//39 35//35
f 38//38 43//43 39//39
f 39//39 40//40 35//35
f 39//39 43//43 40//40
f 40//40 44//44 15//15
f 41//41 42//42 38//38
f 41//41 46//46 42//42
f 42//42 43//43 38//38
f 42//42 46//46 43//43
f 43//43 44//44 40//40
f 43//43 48//48 44//44
f 44//44 48//48 15//15
f 45//45 46//46 41//41
f 46//46 47//47 43//43
f 47//47 48//48 43//43
