# Exported from Wings 3D 2.2.4
mtllib Leaf-A_11.mtl
o Leaf-A_11
#48 vertices, 92 faces
v 0.32337315 4.39517560 -0.57635040
v 0.63300760 4.42369765 -0.16576035
v 0.58658949 4.42295559 0.37940939
v 0.17459266 4.40959513 0.59767474
v -0.29763767 4.42169383 0.54658554
v -0.62680542 4.41748521 0.17836044
v -0.60231345 4.41992250 -0.31646371
v -0.18069264 4.42501997 -0.63499407
v 0.69988788 1.74225103 1.0816334e-3
v 0.47527115 1.73502325 0.43699733
v 1.6711691e-2 1.76231462 0.67961966
v -0.45260384 1.71892067 0.45542661
v -0.62914052 1.72002025 -1.2925715e-2
v -0.45319684 1.72927860 -0.44564775
v 4.8123574e-2 1.73407689 -0.63681624
v 0.48884308 1.72886129 -0.42850727
v 0.44642697 3.83730045 -0.49102649
v 0.56202465 3.33279810 -0.37528607
v 0.64875914 2.84895577 -0.32839198
v 0.66550928 2.31601813 -0.16374263
v 0.66600861 3.87614383 1.9841338e-3
v 0.66234353 3.37500179 0.10834687
v 0.64774729 2.82848627 0.24082477
v 0.55241262 2.27442869 0.34810276
v 0.49195248 3.91369132 0.43340080
v 0.38987005 3.32994245 0.53689248
v 0.28405997 2.83477030 0.62724230
v 0.13691636 2.27845837 0.68364863
v 6.2043321e-2 3.88624155 0.66521615
v -9.9217189e-2 3.28922679 0.65567046
v -0.23323129 2.79800420 0.59689065
v -0.36044043 2.29726943 0.56673602
v -0.41350624 3.89108891 0.52207409
v -0.53700036 3.37324480 0.37645330
v -0.60105232 2.83380164 0.31924944
v -0.63545016 2.28223575 0.14861601
v -0.67016168 3.88612151 4.2808847e-2
v -0.70247143 3.34051958 -0.10103916
v -0.56928808 2.82752245 -0.25394146
v -0.56804678 2.27200700 -0.34284647
v -0.47068430 3.90640005 -0.44482612
v -0.37680626 3.32654333 -0.53805325
v -0.26089358 2.83423094 -0.62271183
v -0.12276375 2.25555627 -0.62186802
v -1.6289280e-2 3.91401582 -0.66134183
v 0.12482069 3.32989467 -0.68410259
v 0.25069800 2.80184085 -0.62890157
v 0.34831347 2.28299857 -0.60543681
vn 0.51422534 0.48355081 -0.70834378
vn 0.64176791 0.74022687 -0.20049474
vn 0.75701841 0.26174619 0.59867526
vn 7.7130074e-2 0.91123894 0.40459183
vn -0.46426422 0.51952220 0.71732519
vn -0.64562220 0.72888257 0.22782050
vn -0.78764237 0.24570176 -0.56502225
vn -9.5179658e-2 0.90775543 -0.40855955
vn 0.89819858 -0.43944746 1.1191394e-2
vn 0.47694298 -0.78775234 0.38983541
vn 1.9889823e-2 -0.46373285 0.88575179
vn -0.55494578 -0.49224656 0.67061801
vn -0.51649335 -0.85613410 -1.6401995e-2
vn -0.73519771 -0.29774445 -0.60896023
vn 2.0641316e-2 -0.84608453 -0.53264896
vn 0.52471873 -0.51672611 -0.67650897
vn 0.67360654 1.0205686e-2 -0.73901967
vn 0.81740358 3.8223424e-2 -0.57479593
vn 0.89878631 6.1517492e-3 -0.43834383
vn 0.97688871 -2.3150946e-2 -0.21249115
vn 0.99949624 5.1403120e-3 -3.1318314e-2
vn 0.98213377 2.5683935e-2 0.18642314
vn 0.93002465 1.0131815e-3 0.36749575
vn 0.85144262 -4.0428677e-2 0.52288716
vn 0.74032324 -3.8464749e-2 0.67114973
vn 0.57839349 1.3689682e-2 0.81564304
vn 0.36557549 4.4461272e-2 0.92971918
vn 0.20781275 -1.2824891e-2 0.97808455
vn 6.2848425e-2 1.4857488e-2 0.99791249
vn -0.15302220 -2.5233281e-2 0.98790055
vn -0.36470515 1.8616219e-2 0.93093694
vn -0.57472324 1.5248431e-2 0.81820577
vn -0.63410994 1.8735351e-2 0.77301589
vn -0.78097962 -2.7340479e-2 0.62395779
vn -0.90964347 -3.2137889e-3 0.41537744
vn -0.97783803 -1.2899041e-2 0.20896509
vn -0.99689923 2.4657157e-2 7.4725886e-2
vn -0.98681248 -5.4226544e-2 -0.15251432
vn -0.93028591 -3.5064661e-2 -0.36515558
vn -0.83915248 5.5698001e-3 -0.54386772
vn -0.72540709 -1.0302367e-2 -0.68824300
vn -0.57845223 8.5987837e-3 -0.81567093
vn -0.42508140 -2.3793083e-2 -0.90484236
vn -0.22767368 -3.5437101e-2 -0.97309245
vn -5.3831619e-2 7.6766118e-3 -0.99852052
vn 0.16488541 7.2713262e-3 -0.98628593
vn 0.32007118 -6.7686694e-3 -0.94736932
vn 0.47755507 -5.2449949e-2 -0.87703487
g Leaf-A_11_default
usemtl default
s 1
f 1//1 4//4 2//2
f 1//1 8//8 4//4
f 1//1 21//21 17//17
f 1//1 45//45 8//8
f 2//2 4//4 3//3
f 2//2 21//21 1//1
f 3//3 21//21 2//2
f 3//3 25//25 21//21
f 3//3 29//29 25//25
f 4//4 8//8 5//5
f 4//4 29//29 3//3
f 5//5 8//8 6//6
f 5//5 29//29 4//4
f 5//5 33//33 29//29
f 5//5 37//37 33//33
f 6//6 8//8 7//7
f 6//6 37//37 5//5
f 7//7 37//37 6//6
f 7//7 41//41 37//37
f 7//7 45//45 41//41
f 8//8 45//45 7//7
f 9//9 20//20 10//10
f 10//10 16//16 9//9
f 10//10 28//28 11//11
f 11//11 12//12 10//10
f 11//11 28//28 12//12
f 12//12 13//13 10//10
f 12//12 36//36 13//13
f 13//13 15//15 10//10
f 13//13 36//36 14//14
f 14//14 15//15 13//13
f 14//14 44//44 15//15
f 15//15 16//16 10//10
f 15//15 44//44 16//16
f 16//16 20//20 9//9
f 16//16 48//48 20//20
f 17//17 21//21 18//18
f 17//17 45//45 1//1
f 18//18 23//23 19//19
f 18//18 45//45 17//17
f 18//18 46//46 45//45
f 18//18 47//47 46//46
f 19//19 23//23 20//20
f 19//19 47//47 18//18
f 20//20 24//24 10//10
f 20//20 47//47 19//19
f 20//20 48//48 47//47
f 21//21 22//22 18//18
f 21//21 26//26 22//22
f 22//22 23//23 18//18
f 22//22 26//26 23//23
f 23//23 24//24 20//20
f 23//23 28//28 24//24
f 24//24 28//28 10//10
f 25//25 26//26 21//21
f 25//25 29//29 26//26
f 26//26 27//27 23//23
f 26//26 31//31 27//27
f 27//27 28//28 23//23
f 27//27 31//31 28//28
f 28//28 32//32 12//12
f 29//29 30//30 26//26
f 29//29 34//34 30//30
f 30//30 31//31 26//26
f 30//30 34//34 31//31
f 31//31 32//32 28//28
f 31//31 36//36 32//32
f 32//32 36//36 12//12
f 33//33 34//34 29//29
f 33//33 37//37 34//34
f 34//34 35//35 31//31
f 34//34 39//39 35//35
f 35//35 36//36 31//31
f 35//35 39//39 36//36
f 36//36 40//40 14//14
f 37//37 38//38 34//34
f 37//37 42//42 38//38
f 38//38 39//39 34//34
f 38//38 42//42 39//39
f 39//39 40//40 36//36
f 39//39 44//44 40//40
f 40//40 44//44 14//14
f 41//41 42//42 37//37
f 41//41 45//45 42//42
f 42//42 43//43 39//39
f 42//42 47//47 43//43
f 43//43 44//44 39//39
f 43//43 47//47 44//44
f 44//44 48//48 16//16
f 45//45 46//46 42//42
f 46//46 47//47 42//42
f 47//47 48//48 44//44
