# Exported from Wings 3D 2.2.4
mtllib Trunk_5.mtl
o Trunk_5
#10 vertices, 16 faces
v 2.4975666e-2 2.29085800 -1.5071017e-4
v -7.2890165e-4 2.29085800 3.5228592e-2
v -4.2319766e-2 2.29085800 2.1714901e-2
v -4.2319766e-2 2.29085800 -2.2016322e-2
v -7.2890165e-4 2.29085800 -3.5530013e-2
v 0.17377567 -8.1142004e-2 -1.5071017e-4
v 4.5252827e-2 -8.1142004e-2 0.17674580
v -0.16270149 -8.1142004e-2 0.10917735
v -0.16270149 -8.1142004e-2 -0.10947877
v 4.5252827e-2 -8.1142004e-2 -0.17704722
vn 0.80797712 5.0685918e-2 0.58702974
vn 0.0000000e+0 1.00000000 0.0000000e+0
vn 0.80797712 5.0685919e-2 -0.58702973
vn 0.80797711 5.0685918e-2 0.58702975
vn 0.80797711 5.0685918e-2 0.58702975
vn 0.0000000e+0 1.00000000 0.0000000e+0
vn 0.0000000e+0 1.00000000 0.0000000e+0
vn 0.0000000e+0 1.00000000 0.0000000e+0
vn -0.30861979 5.0685917e-2 0.94983407
vn -0.30861979 5.0685917e-2 0.94983407
vn -0.99871464 5.0685915e-2 0.0000000e+0
vn 0.0000000e+0 1.00000000 0.0000000e+0
vn -0.30861980 5.0685918e-2 0.94983407
vn -0.99871464 5.0685915e-2 0.0000000e+0
vn -0.99871464 5.0685915e-2 0.0000000e+0
vn 0.0000000e+0 1.00000000 0.0000000e+0
vn 0.0000000e+0 1.00000000 0.0000000e+0
vn -0.30861979 5.0685916e-2 -0.94983407
vn -0.30861979 5.0685916e-2 -0.94983407
vn 0.0000000e+0 1.00000000 0.0000000e+0
vn 0.0000000e+0 1.00000000 0.0000000e+0
vn 0.80797712 5.0685918e-2 -0.58702974
vn 0.80797712 5.0685918e-2 -0.58702974
vn -0.30861980 5.0685916e-2 -0.94983407
vn 0.80797711 5.0685918e-2 0.58702975
vn 0.80797711 5.0685918e-2 0.58702975
vn 0.0000000e+0 -1.00000000 0.0000000e+0
vn 0.0000000e+0 -1.00000000 0.0000000e+0
vn 0.0000000e+0 -1.00000000 0.0000000e+0
vn 0.80797712 5.0685918e-2 -0.58702974
vn 0.80797712 5.0685918e-2 -0.58702974
vn 0.80797711 5.0685917e-2 0.58702975
vn 0.0000000e+0 -1.00000000 0.0000000e+0
vn -0.30861978 5.0685917e-2 0.94983407
vn -0.99871464 5.0685915e-2 0.0000000e+0
vn -0.99871464 5.0685915e-2 0.0000000e+0
vn 0.0000000e+0 -1.00000000 0.0000000e+0
vn 0.0000000e+0 -1.00000000 0.0000000e+0
vn -0.30861979 5.0685917e-2 0.94983407
vn -0.30861979 5.0685917e-2 0.94983407
vn -0.99871464 5.0685915e-2 0.0000000e+0
vn 0.0000000e+0 -1.00000000 0.0000000e+0
vn 0.0000000e+0 -1.00000000 0.0000000e+0
vn -0.30861978 5.0685917e-2 -0.94983407
vn 0.0000000e+0 -1.00000000 0.0000000e+0
vn 0.80797711 5.0685917e-2 -0.58702975
vn -0.30861979 5.0685916e-2 -0.94983407
vn -0.30861979 5.0685916e-2 -0.94983407
g Trunk_5_default
usemtl default
s 1
f 2//4 6//25 1//1
f 2//5 7//32 6//26
f 4//14 8//35 3//11
f 4//15 9//41 8//36
s 2
f 1//2 5//20 2//6
f 2//7 4//16 3//12
f 2//8 5//21 4//17
f 7//33 8//37 6//28
f 8//38 9//43 6//29
f 9//42 10//45 6//27
s 3
f 1//3 6//30 5//22
f 2//9 8//39 7//34
f 3//13 8//40 2//10
f 6//31 10//46 5//23
s 4
f 4//18 10//47 9//44
f 5//24 10//48 4//19
