# Exported from Wings 3D 2.2.4
mtllib Trunk_2.mtl
o Trunk_2
#60 vertices, 116 faces
v -1.6022186e-2 2.29085800 7.9394598e-3
v -1.6022186e-2 2.29085800 -8.2408801e-3
v -2.9971049e-2 2.29085800 2.7138422e-2
v -4.5359467e-2 2.29085800 3.2138422e-2
v -6.7929201e-2 2.29085800 2.4805071e-2
v -7.7439766e-2 2.29085800 1.1714901e-2
v -7.7439766e-2 2.29085800 -1.2016322e-2
v -6.7929201e-2 2.29085800 -2.5106492e-2
v -4.5359467e-2 2.29085800 -3.2439843e-2
v -2.9971049e-2 2.29085800 -2.7439843e-2
v 0.13277781 -8.1142004e-2 7.9394598e-3
v 0.13277781 -8.1142004e-2 -8.2408801e-3
v 1.6010680e-2 -8.1142004e-2 0.16865563
v 6.2226195e-4 -8.1142004e-2 0.17365563
v -0.18831093 -8.1142004e-2 0.11226752
v -0.19782149 -8.1142004e-2 9.9177347e-2
v -0.19782149 -8.1142004e-2 -9.9478767e-2
v -0.18831093 -8.1142004e-2 -0.11256894
v 6.2226195e-4 -8.1142004e-2 -0.17395705
v 1.6010680e-2 -8.1142004e-2 -0.16895705
v 0.11373781 1.81645800 7.9394598e-3
v 0.11373781 1.81645800 -8.2408801e-3
v 9.3497814e-2 1.34205800 7.9394598e-3
v 9.3497814e-2 1.34205800 -8.2408801e-3
v 0.12325781 0.86765800 7.9394598e-3
v 0.12325781 0.86765800 -8.2408801e-3
v 0.20301781 0.39325800 7.9394598e-3
v 0.20301781 0.39325800 -8.2408801e-3
v 7.9225297e-2 1.81645800 5.5441864e-2
v 6.3836879e-2 1.81645800 6.0441864e-2
v 3.8421642e-2 1.34205800 8.3745306e-2
v 2.3033225e-2 1.34205800 8.8745306e-2
v 4.7617988e-2 0.86765800 0.11204875
v 3.2229570e-2 0.86765800 0.11704875
v 0.10681433 0.39325800 0.14035219
v 9.1425916e-2 0.39325800 0.14535219
v 7.9944534e-3 1.81645800 4.2297560e-2
v -1.5161118e-3 1.81645800 2.9207390e-2
v -6.6081892e-2 1.34205800 5.9790049e-2
v -7.5592458e-2 1.34205800 4.6699879e-2
v -9.0158238e-2 0.86765800 7.7282538e-2
v -9.9668803e-2 0.86765800 6.4192369e-2
v -6.4234584e-2 0.39325800 9.4775028e-2
v -7.3745149e-2 0.39325800 8.1684858e-2
v -1.5161118e-3 1.81645800 -2.9508811e-2
v 7.9944534e-3 1.81645800 -4.2598981e-2
v -7.5592458e-2 1.34205800 -4.7001300e-2
v -6.6081892e-2 1.34205800 -6.0091470e-2
v -9.9668803e-2 0.86765800 -6.4493789e-2
v -9.0158238e-2 0.86765800 -7.7583959e-2
v -7.3745149e-2 0.39325800 -8.1986278e-2
v -6.4234584e-2 0.39325800 -9.5076448e-2
v 6.3836879e-2 1.81645800 -6.0743285e-2
v 7.9225297e-2 1.81645800 -5.5743285e-2
v 2.3033225e-2 1.34205800 -8.9046726e-2
v 3.8421642e-2 1.34205800 -8.4046726e-2
v 3.2229570e-2 0.86765800 -0.11735017
v 4.7617988e-2 0.86765800 -0.11235017
v 9.1425916e-2 0.39325800 -0.14565361
v 0.10681433 0.39325800 -0.14065361
vn 0.64814016 0.73141339 0.21201130
vn 0.44539043 0.88340346 -0.14569041
vn 0.28617309 0.87251135 0.39601629
vn -1.2375451e-3 0.30762870 0.95150567
vn -0.41708546 0.70370744 0.57518306
vn -0.79523403 0.54802445 0.25936854
vn -0.53948315 0.82340632 -0.17595444
vn -0.47486313 0.58792974 -0.65486154
vn -1.1215265e-3 0.50638997 -0.86230385
vn 0.47591475 0.58289606 -0.65858738
vn 0.78949351 -0.55733791 0.25704952
vn 0.78949351 -0.55733791 -0.25704952
vn 0.44594725 -0.65003869 0.61528916
vn 5.9453835e-4 -0.83591428 0.54885970
vn -0.49761346 -0.52619523 0.68956466
vn -0.73402667 -0.63553709 0.23936885
vn -0.95067044 -1.0723236e-2 -0.31001730
vn -0.33684901 -0.81770612 -0.46678629
vn 8.7417817e-4 -0.59054469 -0.80700446
vn 0.30459257 -0.85475570 -0.42025713
vn 0.94530042 0.10688615 0.30819225
vn 0.94530042 0.10688615 -0.30819226
vn 0.95098854 9.5196126e-3 0.30907957
vn 0.95098853 9.5196123e-3 -0.30907958
vn 0.94526894 0.10885985 0.30759740
vn 0.94526894 0.10885985 -0.30759741
vn 0.95080169 9.3429200e-3 0.30965926
vn 0.95080169 9.3429202e-3 -0.30965926
vn 0.58439779 8.9368595e-2 0.80653114
vn -4.0458535e-4 5.9386015e-2 0.99823501
vn 0.58757908 2.8657684e-2 0.80865911
vn 1.8862505e-4 5.9533718e-2 0.99822628
vn 0.58513251 9.0161386e-2 0.80590996
vn -4.0800995e-4 5.9510692e-2 0.99822758
vn 0.58677131 2.8607255e-2 0.80924721
vn 1.8706319e-4 5.9408650e-2 0.99823373
vn -0.58668948 2.8486735e-2 0.80931079
vn -0.95081116 9.4202135e-3 0.30962783
vn -0.58486760 9.0119533e-2 0.80610692
vn -0.94538920 0.10888098 0.30722009
vn -0.58749362 2.8652083e-2 0.80872140
vn -0.95099929 9.5275005e-3 0.30904625
vn -0.58414784 8.9218226e-2 0.80672883
vn -0.94540588 0.10697100 0.30783914
vn -0.95081116 9.4202128e-3 -0.30962783
vn -0.58668948 2.8486735e-2 -0.80931079
vn -0.94538920 0.10888098 -0.30722010
vn -0.58486760 9.0119534e-2 -0.80610691
vn -0.95099929 9.5274998e-3 -0.30904624
vn -0.58749364 2.8652082e-2 -0.80872139
vn -0.94540586 0.10697099 -0.30783918
vn -0.58414788 8.9218228e-2 -0.80672881
vn -4.0458129e-4 5.9386014e-2 -0.99823501
vn 0.58439781 8.9368593e-2 -0.80653113
vn 1.8863672e-4 5.9533718e-2 -0.99822628
vn 0.58757909 2.8657682e-2 -0.80865911
vn -4.0799021e-4 5.9510694e-2 -0.99822758
vn 0.58513251 9.0161384e-2 -0.80590997
vn 1.8708209e-4 5.9408648e-2 -0.99823373
vn 0.58677130 2.8607256e-2 -0.80924722
g Trunk_2_Extra
usemtl Extra
s 1
f 1//1 22//22 2//2
f 4//4 29//29 3//3
f 4//4 30//30 29//29
f 6//6 37//37 5//5
f 6//6 38//38 37//37
f 8//8 45//45 7//7
f 8//8 46//46 45//45
f 10//10 53//53 9//9
f 10//10 54//54 53//53
f 12//12 27//27 11//11
f 12//12 28//28 27//27
f 13//13 36//36 14//14
f 15//15 44//44 16//16
f 17//17 52//52 18//18
f 19//19 60//60 20//20
f 21//21 22//22 1//1
f 21//21 23//23 22//22
f 23//23 24//24 22//22
f 23//23 26//26 24//24
f 25//25 26//26 23//23
f 25//25 27//27 26//26
f 27//27 28//28 26//26
f 29//29 32//32 31//31
f 30//30 32//32 29//29
f 32//32 33//33 31//31
f 32//32 34//34 33//33
f 33//33 36//36 35//35
f 34//34 36//36 33//33
f 35//35 36//36 13//13
f 37//37 40//40 39//39
f 38//38 40//40 37//37
f 40//40 41//41 39//39
f 40//40 42//42 41//41
f 41//41 44//44 43//43
f 42//42 44//44 41//41
f 43//43 44//44 15//15
f 45//45 48//48 47//47
f 46//46 48//48 45//45
f 48//48 49//49 47//47
f 48//48 50//50 49//49
f 49//49 52//52 51//51
f 50//50 52//52 49//49
f 51//51 52//52 17//17
f 53//53 56//56 55//55
f 54//54 56//56 53//53
f 56//56 57//57 55//55
f 56//56 58//58 57//57
f 57//57 60//60 59//59
f 58//58 60//60 57//57
f 59//59 60//60 19//19
g Trunk_2_default
usemtl default
s 1
f 1//1 6//6 3//3
f 1//1 7//7 6//6
f 1//1 29//29 21//21
f 2//2 7//7 1//1
f 2//2 8//8 7//7
f 2//2 10//10 8//8
f 2//2 22//22 10//10
f 3//3 5//5 4//4
f 3//3 6//6 5//5
f 3//3 29//29 1//1
f 4//4 37//37 30//30
f 5//5 37//37 4//4
f 6//6 45//45 38//38
f 7//7 45//45 6//6
f 8//8 10//10 9//9
f 8//8 53//53 46//46
f 9//9 53//53 8//8
f 11//11 13//13 12//12
f 11//11 27//27 13//13
f 12//12 60//60 28//28
f 13//13 20//20 12//12
f 14//14 20//20 13//13
f 14//14 36//36 15//15
f 15//15 19//19 14//14
f 16//16 18//18 15//15
f 16//16 44//44 17//17
f 17//17 18//18 16//16
f 18//18 19//19 15//15
f 18//18 52//52 19//19
f 19//19 20//20 14//14
f 20//20 60//60 12//12
f 21//21 29//29 23//23
f 22//22 54//54 10//10
f 22//22 56//56 54//54
f 23//23 33//33 25//25
f 24//24 56//56 22//22
f 25//25 33//33 27//27
f 26//26 56//56 24//24
f 26//26 58//58 56//56
f 26//26 60//60 58//58
f 27//27 35//35 13//13
f 28//28 60//60 26//26
f 29//29 31//31 23//23
f 30//30 37//37 32//32
f 31//31 33//33 23//23
f 32//32 41//41 34//34
f 33//33 35//35 27//27
f 34//34 41//41 36//36
f 36//36 43//43 15//15
f 37//37 39//39 32//32
f 38//38 45//45 40//40
f 39//39 41//41 32//32
f 40//40 49//49 42//42
f 41//41 43//43 36//36
f 42//42 49//49 44//44
f 44//44 51//51 17//17
f 45//45 47//47 40//40
f 46//46 53//53 48//48
f 47//47 49//49 40//40
f 48//48 57//57 50//50
f 49//49 51//51 44//44
f 50//50 57//57 52//52
f 52//52 59//59 19//19
f 53//53 55//55 48//48
f 55//55 57//57 48//48
f 57//57 59//59 52//52
