# Exported from Wings 3D 2.2.4
mtllib Trunk_3.mtl
o Trunk_3
#60 vertices, 116 faces
v 6.9859812e-2 2.29085800 7.9394598e-3
v 6.9859812e-2 2.29085800 -8.2408801e-3
v 5.5910950e-2 2.29085800 2.7138422e-2
v 4.0522532e-2 2.29085800 3.2138422e-2
v 1.7952798e-2 2.29085800 2.4805071e-2
v 8.4422327e-3 2.29085800 1.1714901e-2
v 8.4422327e-3 2.29085800 -1.2016322e-2
v 1.7952798e-2 2.29085800 -2.5106492e-2
v 4.0522532e-2 2.29085800 -3.2439843e-2
v 5.5910950e-2 2.29085800 -2.7439843e-2
v 0.21865981 -8.1142004e-2 7.9394598e-3
v 0.21865981 -8.1142004e-2 -8.2408801e-3
v 0.10189268 -8.1142004e-2 0.16865563
v 8.6504261e-2 -8.1142004e-2 0.17365563
v -0.10242893 -8.1142004e-2 0.11226752
v -0.11193950 -8.1142004e-2 9.9177347e-2
v -0.11193950 -8.1142004e-2 -9.9478767e-2
v -0.10242893 -8.1142004e-2 -0.11256894
v 8.6504261e-2 -8.1142004e-2 -0.17395705
v 0.10189268 -8.1142004e-2 -0.16895705
v -3.8018766e-4 1.81645800 7.9394598e-3
v -3.8018766e-4 1.81645800 -8.2408801e-3
v -2.0296877e-2 1.34205800 7.9394598e-3
v -2.0296877e-2 1.34205800 -8.2408801e-3
v 9.4631234e-3 0.86765800 7.9394598e-3
v 9.4631234e-3 0.86765800 -8.2408801e-3
v 8.8899812e-2 0.39325800 7.9394598e-3
v 8.8899812e-2 0.39325800 -8.2408801e-3
v -3.4892705e-2 1.81645800 5.5441864e-2
v -5.0281122e-2 1.81645800 6.0441864e-2
v -7.5373048e-2 1.34205800 8.3745306e-2
v -9.0761466e-2 1.34205800 8.8745306e-2
v -6.6176702e-2 0.86765800 0.11204875
v -8.1565120e-2 0.86765800 0.11704875
v -7.3036674e-3 0.39325800 0.14035219
v -2.2692085e-2 0.39325800 0.14535219
v -0.10612355 1.81645800 4.2297560e-2
v -0.11563411 1.81645800 2.9207390e-2
v -0.17987658 1.34205800 5.9790049e-2
v -0.18938715 1.34205800 4.6699879e-2
v -0.20395293 0.86765800 7.7282538e-2
v -0.21346349 0.86765800 6.4192369e-2
v -0.17835259 0.39325800 9.4775028e-2
v -0.18786315 0.39325800 8.1684858e-2
v -0.11563411 1.81645800 -2.9508811e-2
v -0.10612355 1.81645800 -4.2598981e-2
v -0.18938715 1.34205800 -4.7001300e-2
v -0.17987658 1.34205800 -6.0091470e-2
v -0.21346349 0.86765800 -6.4493789e-2
v -0.20395293 0.86765800 -7.7583959e-2
v -0.18786315 0.39325800 -8.1986278e-2
v -0.17835259 0.39325800 -9.5076448e-2
v -5.0281122e-2 1.81645800 -6.0743285e-2
v -3.4892705e-2 1.81645800 -5.5743285e-2
v -9.0761466e-2 1.34205800 -8.9046726e-2
v -7.5373048e-2 1.34205800 -8.4046726e-2
v -8.1565120e-2 0.86765800 -0.11735017
v -6.6176702e-2 0.86765800 -0.11235017
v -2.2692085e-2 0.39325800 -0.14565361
v -7.3036674e-3 0.39325800 -0.14065361
vn 0.88597570 0.36309253 0.28846296
vn 0.88597571 0.36309252 -0.28846294
vn 0.32272085 0.83521641 0.44526936
vn 8.2507094e-4 0.64794981 0.76168258
vn -0.28583274 0.87258902 0.39609097
vn -0.83972202 0.46891411 0.27383662
vn -0.56770573 0.80214505 -0.18513109
vn -0.41696266 0.70163053 -0.57780338
vn 5.6345113e-4 0.85406523 -0.52016562
vn 0.47458034 0.58823183 -0.65479525
vn 0.56163759 -0.80672905 0.18371569
vn 0.83187261 -0.48367684 -0.27211151
vn 0.55264870 -0.33120893 0.76477451
vn -1.1777540e-3 -0.42426876 0.90553555
vn -0.44618221 -0.64985865 0.61530900
vn -0.47526356 -0.86608126 0.15500902
vn -0.69388764 -0.68359484 -0.22631402
vn -0.39123901 -0.74553949 -0.53953952
vn -1.2742190e-3 -0.20043129 -0.97970693
vn 0.33733120 -0.81749340 -0.46681067
vn 0.94711509 -8.9784778e-2 0.30807741
vn 0.94711510 -8.9784778e-2 -0.30807741
vn 0.95098580 9.8431797e-3 0.30907784
vn 0.95098580 9.8431792e-3 -0.30907784
vn 0.94530255 0.10854557 0.30760517
vn 0.94530255 0.10854557 -0.30760518
vn 0.93050390 0.20469613 0.30374657
vn 0.93050390 0.20469613 -0.30374657
vn 0.58699265 -3.2887916e-2 0.80892399
vn 7.8214955e-4 5.9432024e-2 0.99823205
vn 0.58757736 2.8857524e-2 0.80865326
vn 1.8669584e-4 5.9534048e-2 0.99822626
vn 0.58514641 8.9965236e-2 0.80592179
vn -4.0608621e-4 5.9511170e-2 0.99822756
vn 0.57978647 0.15029909 0.80078576
vn -1.0001370e-3 5.9363389e-2 0.99823594
vn -0.57936114 0.15015108 0.80112129
vn -0.93071358 0.20477067 0.30305315
vn -0.58488197 8.9923789e-2 0.80611835
vn -0.94542251 0.10856648 0.30722889
vn -0.58749136 2.8852113e-2 0.80871593
vn -0.95099696 9.8509139e-3 0.30904326
vn -0.58708953 -3.2933342e-2 0.80885183
vn -0.94701722 -8.9744611e-2 0.30838982
vn -0.93071355 0.20477067 -0.30305324
vn -0.57936121 0.15015109 -0.80112124
vn -0.94542248 0.10856648 -0.30722900
vn -0.58488206 8.9923797e-2 -0.80611828
vn -0.95099695 9.8509153e-3 -0.30904330
vn -0.58749142 2.8852115e-2 -0.80871589
vn -0.94701724 -8.9744614e-2 -0.30838977
vn -0.58708949 -3.2933335e-2 -0.80885185
vn 7.8214205e-4 5.9432024e-2 -0.99823205
vn 0.58699265 -3.2887917e-2 -0.80892398
vn 1.8669571e-4 5.9534047e-2 -0.99822626
vn 0.58757736 2.8857522e-2 -0.80865326
vn -4.0607864e-4 5.9511171e-2 -0.99822756
vn 0.58514641 8.9965235e-2 -0.80592179
vn -1.0001310e-3 5.9363388e-2 -0.99823594
vn 0.57978647 0.15029909 -0.80078576
g Trunk_3_Extra
usemtl Extra
s 1
f 1//1 22//22 2//2
f 4//4 29//29 3//3
f 4//4 30//30 29//29
f 6//6 37//37 5//5
f 6//6 38//38 37//37
f 8//8 45//45 7//7
f 8//8 46//46 45//45
f 10//10 53//53 9//9
f 10//10 54//54 53//53
f 12//12 27//27 11//11
f 12//12 28//28 27//27
f 13//13 36//36 14//14
f 15//15 44//44 16//16
f 17//17 52//52 18//18
f 19//19 60//60 20//20
f 21//21 22//22 1//1
f 21//21 23//23 22//22
f 23//23 24//24 22//22
f 23//23 26//26 24//24
f 25//25 26//26 23//23
f 25//25 27//27 26//26
f 27//27 28//28 26//26
f 29//29 32//32 31//31
f 30//30 32//32 29//29
f 32//32 33//33 31//31
f 32//32 34//34 33//33
f 33//33 36//36 35//35
f 34//34 36//36 33//33
f 35//35 36//36 13//13
f 37//37 40//40 39//39
f 38//38 40//40 37//37
f 40//40 41//41 39//39
f 40//40 42//42 41//41
f 41//41 44//44 43//43
f 42//42 44//44 41//41
f 43//43 44//44 15//15
f 45//45 48//48 47//47
f 46//46 48//48 45//45
f 48//48 49//49 47//47
f 48//48 50//50 49//49
f 49//49 52//52 51//51
f 50//50 52//52 49//49
f 51//51 52//52 17//17
f 53//53 56//56 55//55
f 54//54 56//56 53//53
f 56//56 57//57 55//55
f 56//56 58//58 57//57
f 57//57 60//60 59//59
f 58//58 60//60 57//57
f 59//59 60//60 19//19
g Trunk_3_default
usemtl default
s 1
f 1//1 10//10 3//3
f 1//1 29//29 21//21
f 2//2 10//10 1//1
f 2//2 22//22 10//10
f 3//3 9//9 4//4
f 3//3 10//10 9//9
f 3//3 29//29 1//1
f 4//4 8//8 5//5
f 4//4 9//9 8//8
f 4//4 37//37 30//30
f 5//5 7//7 6//6
f 5//5 8//8 7//7
f 5//5 37//37 4//4
f 6//6 45//45 38//38
f 7//7 45//45 6//6
f 8//8 53//53 46//46
f 9//9 53//53 8//8
f 11//11 16//16 12//12
f 11//11 27//27 13//13
f 12//12 60//60 28//28
f 13//13 15//15 11//11
f 14//14 15//15 13//13
f 14//14 36//36 15//15
f 15//15 16//16 11//11
f 16//16 17//17 12//12
f 16//16 44//44 17//17
f 17//17 20//20 12//12
f 18//18 20//20 17//17
f 18//18 52//52 19//19
f 19//19 20//20 18//18
f 20//20 60//60 12//12
f 21//21 29//29 23//23
f 22//22 54//54 10//10
f 22//22 56//56 54//54
f 23//23 33//33 25//25
f 24//24 56//56 22//22
f 25//25 33//33 27//27
f 26//26 56//56 24//24
f 26//26 58//58 56//56
f 26//26 60//60 58//58
f 27//27 35//35 13//13
f 28//28 60//60 26//26
f 29//29 31//31 23//23
f 30//30 37//37 32//32
f 31//31 33//33 23//23
f 32//32 41//41 34//34
f 33//33 35//35 27//27
f 34//34 41//41 36//36
f 36//36 43//43 15//15
f 37//37 39//39 32//32
f 38//38 45//45 40//40
f 39//39 41//41 32//32
f 40//40 49//49 42//42
f 41//41 43//43 36//36
f 42//42 49//49 44//44
f 44//44 51//51 17//17
f 45//45 47//47 40//40
f 46//46 53//53 48//48
f 47//47 49//49 40//40
f 48//48 57//57 50//50
f 49//49 51//51 44//44
f 50//50 57//57 52//52
f 52//52 59//59 19//19
f 53//53 55//55 48//48
f 55//55 57//57 48//48
f 57//57 59//59 52//52
